<?xml version="1.0" ?>
<svg xmlns="http://www.w3.org/2000/svg" xmlns:ev="http://www.w3.org/2001/xml-events" xmlns:inkscape="http://www.inkscape.org/namespaces/inkscape" xmlns:sodipodi="http://sodipodi.sourceforge.net/DTD/sodipodi-0.dtd" xmlns:svg="http://www.w3.org/2000/svg" xmlns:xlink="http://www.w3.org/1999/xlink" baseProfile="full" height="158.75mm" id="svg1" inkscape:version="1.4 (86a8ad7, 2024-10-11)" sodipodi:docname="Bob Marley plano.svg" version="1.1" viewBox="0 0 158.75 158.75" width="158.75mm" xml:space="preserve">
	<defs/>
	<path d="M 24.240451,116.339 C 22.642128,112.94284999999999 17.786473,107.98873999999999 24.13953,106.91886 C 28.243194000000003,105.68204999999999 30.834067,102.58219 33.729727,99.68885999999999 C 32.900183,99.87436 30.344513999999997,101.19039 28.850600999999997,101.81101999999998 C 24.912397999999996,103.57642999999999 20.998420999999997,105.39952999999998 17.015522999999998,107.06204999999999 C 15.320396999999998,103.40214999999999 9.843294199999999,97.86246899999999 16.734634,96.59102199999998 C 19.878326,95.03636599999999 24.600622,93.67556399999998 20.646917,89.85727399999998 C 18.894387,86.28661199999998 26.198278,86.98748599999998 26.758532,83.41554199999997 C 30.518604,81.33801399999997 33.467286,77.55980499999997 36.760262,74.35829399999997 C 49.262448,66.28598699999998 63.321916,61.00734599999997 77.010296,55.32391699999997 C 95.027239,48.371221999999975 113.24045,41.84683699999997 131.75788,36.35808599999997 C 134.82232,38.203759999999974 139.75813,45.37359999999997 132.75053,46.17659099999997 C 129.77118,47.56771799999997 124.14773,50.795995999999974 123.96083,52.64267999999997 C 129.22677,50.62055799999997 134.40999,48.390989999999974 139.65897,46.325976999999966 C 141.16059,48.98040499999997 142.69334,51.617617999999965 144.15573,54.293936999999964 C 140.83229,57.264509999999966 131.27934,57.65724699999996 136.23831,63.418454999999966 C 138.47829000000002,66.80382199999997 131.17578,66.28877999999996 129.39012000000002,68.07139599999996 C 127.13804000000002,68.96664999999996 124.88631000000002,69.86276199999996 122.63437000000002,70.75836699999996 C 124.10979000000002,71.20134999999996 130.02321,70.78401699999996 127.61106000000002,72.11498299999997 C 113.39381,80.584811 99.184634,89.076235 85.190116,97.899192 C 74.945018,103.87774 64.80689,110.06878 54.36869,115.69788 C 49.877473,118.32236999999999 45.162922,115.91759 41.002261000000004,113.96486 C 39.288337000000006,113.36308 37.613106,111.8078 35.823661,113.06704 C 32.083558000000004,114.35229000000001 28.343456000000003,115.63755 24.603354000000003,116.92280000000001 C 24.482386,116.72820000000002 24.361419,116.5336 24.240451000000004,116.33900000000001 L 24.240451000000004,116.33900000000001" id="path5" style="display:inline;fill:#ffff00"/>
	<path d="M 30.427083,75.962437 C 25.922811,75.081403 22.890797,68.66662699999999 18.124032999999997,72.79161099999999 C 16.010903999999996,72.95211899999998 21.903653999999996,69.262684 23.137376999999997,68.487636 C 25.414032999999996,66.62280899999999 29.922416999999996,65.281756 30.955668999999997,63.01738699999999 C 26.498115999999996,63.98835999999999 21.921720999999998,65.237399 17.789561,67.299324 C 14.340246999999998,70.728504 8.921192399999999,62.241551 12.498750999999999,60.259084 C 19.339218,56.243533 26.738402999999998,53.023441000000005 33.072916,48.234987000000004 C 28.809473999999998,46.791049 22.580216,54.696760000000005 19.750670999999997,49.129702 C 16.922776,44.273659 25.999182999999995,43.615646 28.637698999999998,41.004351 C 51.17221,29.337555 73.880512,17.650155 98.1004,9.8443218 C 102.07135,8.19736 105.82826999999999,16.51418 99.91557499999999,16.357187 C 98.272511,16.748146 91.75660799999999,20.412395 97.02395299999999,19.380378999999998 C 104.84289,16.404553999999997 112.65261,13.296477999999997 120.72814,11.091420999999999 C 124.0238,12.723985999999998 128.22845999999998,19.381805999999997 121.8061,20.095005 C 117.14863,22.322218 112.4108,24.437894 107.83046,26.792286 C 110.62198000000001,29.82526 116.3703,24.355088000000002 120.12221,23.798174 C 123.07625999999999,22.577909 126.03031999999999,21.357671 128.98436999999998,20.137417 C 130.25429,22.518328999999998 136.28043,27.761253 131.07892999999999,28.779352 C 127.19352999999998,30.153745999999998 120.89203999999998,31.703497 125.67593999999998,36.462739 C 127.65555999999998,38.401903 124.65744999999998,38.375147999999996 123.30415999999998,38.998005 C 96.26929799999998,47.954229999999995 69.16961699999999,57.211625999999995 43.79419899999998,70.275721 C 39.60953199999998,71.731278 36.719795999999974,75.730866 32.83536099999998,76.32736200000001 C 32.067093999999976,76.621739 31.212731999999978,75.96694300000001 30.42708299999998,75.96243700000001 L 30.42708299999998,75.96243700000001" id="path6" style="display:inline;fill:#00ff00"/>
	<path d="M 75.848144,54.189958 C 75.952538,53.550816999999995 76.982172,53.420116 77.12777200000001,53.878456 C 77.65398200000001,53.084376 78.454694,53.400415 78.80653400000001,54.418365 C 79.96374400000002,53.913470000000004 80.51858400000002,54.725748 80.47993400000001,56.011753 C 81.60080200000002,54.562867 82.25323500000002,55.528915999999995 82.58863300000002,56.671490999999996 C 83.83897500000002,56.080195999999994 84.73098900000002,56.44336 85.37404900000001,57.814322 C 86.07845700000001,58.143224 86.13298500000002,58.324732 86.76138000000002,58.722528999999994 C 87.25690400000002,59.28207999999999 87.68006900000002,60.43386099999999 87.20764300000002,60.924921 C 87.00482000000002,61.135743 85.66865400000002,61.392576999999996 84.49803900000002,60.726658 L 83.50446900000001,59.396977 C 82.78003100000001,58.985299 82.37681300000001,58.87984 81.84492500000002,58.103493 C 81.23527500000002,58.018093 80.74705100000001,57.856137 80.13621400000002,57.170698 C 79.08097600000002,57.160398 79.09609100000003,57.156888 77.79373700000002,56.771564000000005 C 77.35780700000002,57.015154 76.81782000000003,57.07884800000001 76.10649000000002,56.49625100000001 C 75.12620200000002,56.57406100000001 75.05777900000002,56.27895600000001 75.15361300000002,55.413658000000005 L 75.84814400000002,54.189958000000004" id="path27" style="display:inline;fill:#ffffff;fill-opacity:1;stroke:none;stroke-width:0.0881944;stroke-linecap:butt;stroke-linejoin:miter;stroke-dasharray:none;stroke-opacity:1"/>
	<path d="M 0.0,0.0 L 158.75,0.0 L 158.75,158.75 L 0.0,158.75 L 0.0,0.0" height="158.75" id="rect1" sodipodi:insensitive="true" style="display:none;fill:#ffffff;stroke-width:5.39369;stroke-linecap:round;-inkscape-stroke:none" width="158.75" x="0" y="0"/>
</svg>
