<?xml version="1.0" encoding="UTF-8" standalone="no"?>
<svg
   height="158.75mm"
   id="svg1"
   version="1.1"
   viewBox="0 0 158.75 158.75"
   width="158.75mm"
   xml:space="preserve"
   sodipodi:docname="Bob Marley plano.svg"
   inkscape:version="1.4 (86a8ad7, 2024-10-11)"
   xmlns:inkscape="http://www.inkscape.org/namespaces/inkscape"
   xmlns:sodipodi="http://sodipodi.sourceforge.net/DTD/sodipodi-0.dtd"
   xmlns="http://www.w3.org/2000/svg"
   xmlns:svg="http://www.w3.org/2000/svg"><sodipodi:namedview
   id="namedview1"
   pagecolor="#ffffff"
   bordercolor="#999999"
   borderopacity="1"
   inkscape:showpageshadow="0"
   inkscape:pageopacity="0"
   inkscape:pagecheckerboard="0"
   inkscape:deskcolor="#d1d1d1"
   inkscape:document-units="mm"
   inkscape:zoom="0.83666667"
   inkscape:cx="345.41833"
   inkscape:cy="369.32271"
   inkscape:window-width="1366"
   inkscape:window-height="697"
   inkscape:window-x="-8"
   inkscape:window-y="113"
   inkscape:window-maximized="1"
   inkscape:current-layer="svg1" />
	<defs
   id="defs1" />
	<path
   d="m 39.919586,137.43096 c -2.574963,-3.22354 -6.146347,-9.63746 0.657893,-10.02861 2.381855,-1.40223 7.419319,-2.0647 3.881058,-5.3825 -2.932749,-3.26263 -0.789233,-6.65201 3.33602,-5.43204 4.978463,1.07459 8.880048,-2.17626 12.921453,-4.42724 21.464503,-12.406353 42.48085,-25.569294 63.77493,-38.260524 3.11147,-1.365446 4.52588,-3.15807 0.32908,-2.931285 -4.71649,-0.54928 5.59196,-3.040825 7.23741,-3.718384 6.50332,1.30159 -4.19224,5.891917 0.10251,8.369846 -1.37539,1.154586 -6.14538,5.563505 -1.5876,3.405694 4.43722,-4.118667 9.3107,0.252845 12.58166,3.444438 2.08332,1.369167 4.71383,2.08145 1.47319,4.356939 -2.00965,3.355147 6.23873,7.96871 1.49625,11.136177 -7.76182,4.917529 -15.39498,10.200309 -23.48416,14.650159 -22.855409,12.6267 -46.133297,24.75534 -70.694296,33.74979 -3.431953,2.35558 -5.314211,0.97356 -6.670482,-2.4947 -4.280663,-5.66907 3.977544,-6.91252 7.444923,-9.08327 7.037909,-3.6507 14.134093,-7.19133 21.091922,-10.99449 -5.579774,-0.59402 -9.949697,3.94155 -15.100364,5.3558 -6.244643,2.80414 -12.458504,5.68204 -18.791397,8.2842 z M 131.5898,91.165913 c -0.90606,0.453868 -1.77371,1.080845 -1.79195,1.631765 0.5833,0.312244 1.747,-0.301305 2.58657,-0.961626 1.16507,-0.916333 1.70595,-1.922736 -0.79462,-0.670139 z m 6.95609,-0.08584 c 3.09102,-1.190467 6.82136,-1.748302 5.28891,-5.156509 -2.34197,0.595032 -4.21348,2.397658 -6.253,3.616409 -4.31535,1.71657 -1.98981,3.332468 0.96409,1.5401 z"
   fill="none"
   id="path1"
   stroke="#ff0000"
   stroke-width="2"
   style="display:inline;fill:#ff0000;stroke:none;stroke-width:0.705556;stroke-dasharray:none"
   sodipodi:nodetypes="ccccccccccccccccccccscsscccc" />
	<path
   d="m 24.240451,116.339 c -1.598323,-3.39615 -6.453978,-8.35026 -0.100921,-9.42014 4.103664,-1.23681 6.694537,-4.33667 9.590197,-7.23 -0.829544,0.1855 -3.385213,1.50153 -4.879126,2.12216 -3.938203,1.76541 -7.85218,3.58851 -11.835078,5.25103 -1.695126,-3.6599 -7.1722288,-9.199581 -0.280889,-10.471028 3.143692,-1.554656 7.865988,-2.915458 3.912283,-6.733748 -1.75253,-3.570662 5.551361,-2.869788 6.111615,-6.441732 3.760072,-2.077528 6.708754,-5.855737 10.00173,-9.057248 12.502186,-8.072307 26.561654,-13.350948 40.250034,-19.034377 18.016943,-6.952695 36.230154,-13.47708 54.747584,-18.965831 3.06444,1.845674 8.00025,9.015514 0.99265,9.818505 -2.97935,1.391127 -8.6028,4.619405 -8.7897,6.466089 5.26594,-2.022122 10.44916,-4.25169 15.69814,-6.316703 1.50162,2.654428 3.03437,5.291641 4.49676,7.96796 -3.32344,2.970573 -12.87639,3.36331 -7.91742,9.124518 2.23998,3.385367 -5.06253,2.870325 -6.84819,4.652941 -2.25208,0.895254 -4.50381,1.791366 -6.75575,2.686971 1.47542,0.442983 7.38884,0.02565 4.97669,1.356616 C 113.39381,80.584811 99.184634,89.076235 85.190116,97.899192 74.945018,103.87774 64.80689,110.06878 54.36869,115.69788 c -4.491217,2.62449 -9.205768,0.21971 -13.366429,-1.73302 -1.713924,-0.60178 -3.389155,-2.15706 -5.1786,-0.89782 -3.740103,1.28525 -7.480205,2.57051 -11.220307,3.85576 -0.120968,-0.1946 -0.241935,-0.3892 -0.362903,-0.5838 v 0"
   id="path5"
   style="display:inline;fill:#ffff00" />
	<path
   d="m 30.427083,75.962437 c -4.504272,-0.881034 -7.536286,-7.29581 -12.30305,-3.170826 -2.113129,0.160508 3.779621,-3.528927 5.013344,-4.303975 2.276656,-1.864827 6.78504,-3.20588 7.818292,-5.470249 -4.457553,0.970973 -9.033948,2.220012 -13.166108,4.281937 -3.449314,3.42918 -8.8683686,-5.057773 -5.29081,-7.04024 6.840467,-4.015551 14.239652,-7.235643 20.574165,-12.024097 -4.263442,-1.443938 -10.4927,6.461773 -13.322245,0.894715 -2.827895,-4.856043 6.248512,-5.514056 8.887028,-8.125351 C 51.17221,29.337555 73.880512,17.650155 98.1004,9.8443218 c 3.97095,-1.6469618 7.72787,6.6698582 1.815175,6.5128652 -1.643064,0.390959 -8.158967,4.055208 -2.891622,3.023192 7.818937,-2.975825 15.628657,-6.083901 23.704187,-8.288958 3.29566,1.632565 7.50032,8.290385 1.07796,9.003584 -4.65747,2.227213 -9.3953,4.342889 -13.97564,6.697281 2.79152,3.032974 8.53984,-2.437198 12.29175,-2.994112 2.95405,-1.220265 5.90811,-2.440503 8.86216,-3.660757 1.26992,2.380912 7.29606,7.623836 2.09456,8.641935 -3.8854,1.374394 -10.18689,2.924145 -5.40299,7.683387 1.97962,1.939164 -1.01849,1.912409 -2.37178,2.535266 -27.034862,8.956225 -54.134543,18.213621 -79.509961,31.277716 -4.184667,1.455557 -7.074403,5.455145 -10.958838,6.051641 -0.768267,0.294377 -1.622629,-0.360419 -2.408278,-0.364925 v 0"
   id="path6"
   style="display:inline;fill:#00ff00" />
	<path
   d="m 77.106405,39.414648 c -2.079627,-3.410005 5.553447,-1.065415 7.30653,-2.108398 0.911454,-1.017974 -2.926324,-1.90209 -3.76445,-1.54605 -0.874019,-0.249219 -5.018593,3.209385 -3.048054,-0.537027 4.156837,-4.289287 -3.37459,0.896505 -2.351277,3.38584 -4.129564,0.662952 -5.593853,4.414209 -5.553667,8.303886 -1.442171,3.868236 -1.251928,7.879232 -2.885095,11.207584 -0.685583,0.975229 -2.518518,4.682563 0.195854,5.524211 1.176984,-2.352328 4.558806,-6.90252 2.478918,-1.335319 -2.101698,3.278668 0.410257,5.742624 2.898531,3.488159 2.546689,3.833031 9.210641,5.897999 12.648324,1.449007 2.803871,-0.367516 -2.199036,2.369548 -1.117761,4.017843 l 1.016475,0.405143 0.877983,-0.359668 c 2.232028,-0.592941 4.094448,-4.147292 5.297351,-4.965588 -1.446802,1.397736 -8.486797,5.563228 -4.101042,1.36064 2.692405,-4.092841 9.918009,-3.619864 11.09183,-7.908561 0.941147,-0.556049 1.435485,2.887279 1.950265,-1.312581 0.21499,-2.617417 1.41701,-9.594537 -0.413408,-5.391919 -0.890176,-4.12388 -6.249371,-1.364039 -6.637321,-4.076237 2.105333,-2.262809 -5.167667,-5.533783 -0.403593,-8.312671 4.602833,-2.604533 10.601072,2.147407 10.242782,5.706628 2.15115,-3.326425 2.74836,-7.631812 0.1695,-10.980725 -2.90323,-5.263503 -9.2357,-7.62374 -15.003733,-7.463627 -0.62848,-0.251706 -1.297155,-0.351842 -3.095291,-0.280382 -1.798136,0.07146 -4.819448,2.564643 -5.072169,5.370511 4.513778,-2.401076 12.659972,1.812176 9.388348,7.139446 -3.271625,5.32727 -8.756104,2.654232 -12.11583,-0.780145 z m 5.972762,1.772502 c -1.197985,-1.081332 -3.314438,-2.05847 -3.657658,-2.034501 -0.205932,0.01438 0.114667,0.514753 1.767149,1.444048 0.376959,0.530033 1.236198,0.810456 1.890509,0.590453 m -9.015602,-1.109345 c -0.116253,-0.800261 1.002301,-0.607326 1.425881,-0.632672 h 3e-6 c 1.27074,-0.07604 1.450384,1.56403 -1.354439,1.124479 l -0.07144,-0.491807 m 16.230665,2.845151 c 0.549973,0.02738 0.409655,3.518519 -0.767395,1.460893 0.323812,-1.094456 0.584071,-1.470018 0.767395,-1.460893 m 9.778735,3.166215 c 0.51749,1.36131 -0.0684,5.312002 1.27848,2.064991 0.80117,-1.249398 -1.22185,-3.33263 -2.414332,-3.391525 -0.22645,-0.0067 -0.649143,-0.185274 -0.780314,0.72192 v 0 c -4.559841,-0.832531 1.282646,1.693887 1.916166,0.604614 v 0 M 74.6125,47.939709 c 1.143615,-1.679282 3.153558,-2.585894 4.671033,-2.559533 v 0 c 1.517474,0.02636 2.542281,0.985883 1.715657,3.038574 v 0 C 78.902118,45.900599 76.460248,48.50291 74.6125,47.939709 M 88.9,51.611837 c -4.332661,-0.836504 1.292104,-5.1621 1.806608,-5.52111 2.087533,2.978622 0.444067,2.340253 -1.302763,3.286104 1.362754,0.578546 1.37511,3.227929 -0.503845,2.235006 m -5.55625,-2.653585 c -2.570581,-1.18029 -1.368269,-1.875297 0.02429,-1.90531 h -2e-6 c 1.392556,-0.03001 2.975362,0.604936 1.166337,2.084627 L 83.34375,48.958252 m 15.610417,1.091921 c -0.865532,-1.373752 -3.50691,-2.856418 -4.096908,-2.935221 v 0 c -0.353998,-0.04728 0.03043,0.410919 1.980241,1.700671 v 0 c 1.074645,0.21816 0.894301,2.260579 2.116667,1.23455 v 0 m -9.517766,11.67939 c -1.01691,0.735041 -2.337676,0.256586 -3.468005,0.165882 -4.733762,-1.53953 -10.617292,-3.383426 -13.561963,-7.431588 -0.712372,-3.047609 3.583713,-4.392445 6.999056,-4.140316 v 0 c 1.138448,0.08404 2.101885,0.513043 4.728307,1.286404 2.626421,0.773362 8.172684,5.658387 5.302605,10.119618 v 0 M 99.272493,50.66874 c -0.07746,0.0125 -0.04907,0.24234 0.0034,0.42763 0.07859,0.277379 0.211222,0.454918 0.123696,-0.34598 -0.05827,-0.06273 -0.09949,-0.08611 -0.127125,-0.08165 h 2.9e-5 m -6.589261,6.93446 c 1.138569,-3.88807 -1.672307,-3.243698 -3.254065,-4.872054 1.128753,-0.145436 2.24412,-1.79503 3.012736,-1.865002 0.461169,-0.04198 0.797502,0.484505 0.936893,2.245858 0.94857,0.981872 -0.417634,9.860269 -0.695564,4.491198 m -9.792684,-4.159952 c -0.604314,-1.518179 -3.181679,-1.926427 -4.749064,-1.873788 -1.567386,0.05264 -2.124838,0.566324 1.310514,0.892452 0.489068,-0.09633 4.122848,2.361464 3.43855,0.981336 m 5.215702,3.776 c -0.600669,-1.767032 -2.914747,-2.778276 -3.413228,-2.637048 -0.299089,0.08474 0.05558,0.58437 1.825728,1.584399 0.09906,0.178666 1.413287,2.494444 1.5875,1.052649 m -3.957381,6.545337 c -0.879136,0.117844 -1.778546,0.157033 -2.657202,0.01034 -2.646437,0.302962 -7.915012,-3.945617 -6.035291,-4.043164 0.859497,-0.123496 1.456757,0.193129 2.563668,0.702278 v 0 c 1.708683,0.953436 6.841658,1.059253 6.128825,3.330546 M 60.274357,86.100686 c 0.08499,2.046872 2.625524,7.274759 2.270146,8.859924 -1.250058,-2.406119 -2.307063,5.85614 -1.635559,7.61659 -0.05736,0.96787 2.150525,10.26486 2.810164,6.49728 2.935312,-5.60341 3.801003,-11.945443 6.924642,-17.490925 2.643087,-4.960769 9.792845,-6.283676 11.973429,-12.168249 1.798876,-2.975473 -5.100291,1.405076 -5.002795,3.481441 -1.711635,1.615787 -10.203631,6.415284 -5.056022,1.39423 2.388677,-3.372776 -5.20543,1.125562 -4.763534,-3.458704 -3.457522,-2.010808 -1.545326,5.729248 -3.897953,1.653129 -1.05523,-0.964481 0.697481,-4.462749 -1.769918,-5.623946 -0.642016,-1.615194 0.987513,-7.234978 0.675411,-7.454842 v 0 c -0.104034,-0.07329 -0.423605,0.453573 -1.115177,1.928565 v 0 C 60.390242,75.87516 58.00797,81.993705 60.274357,86.100686 m 6.666775,3.323049 c -0.0066,0.814975 -0.188649,1.461924 -0.392821,1.978661 -0.376884,0.953853 -0.745567,0.755043 -0.739561,-0.03939 -0.0587,-0.239062 -0.104444,-0.477742 -0.0965,-0.863647 -0.0092,-0.328993 0.04551,-0.600516 0.05349,-0.929617 0.007,-0.287894 -0.0354,-0.633437 -0.008,-0.9204 0.038,-0.913742 0.236754,-1.716873 0.492477,-2.233455 0.531527,-1.014228 0.843963,-0.618892 0.906417,0.100286 0.01272,0.412409 -0.05313,0.82216 -0.100779,1.230929 0.01068,0.256442 -0.09274,0.512145 -0.09672,0.78681 -0.004,0.274665 0.0095,0.606515 -0.018,0.889828 z"
   fill="none"
   id="path29"
   stroke="#ff0000"
   stroke-width="2"
   style="display:inline;fill:#bb7d47;stroke:none;stroke-width:0.5;stroke-dasharray:none"
   sodipodi:nodetypes="ccccccccccccccccccccccccsccccscccssccccccccsssccssssccccccsscccsssssccccssssccccccccscccscccscccccssccccccccccccssssccsccscccccc" />
	<path
   d="m 75.848144,54.189958 c 0.104394,-0.639141 1.134028,-0.769842 1.279628,-0.311502 0.52621,-0.79408 1.326922,-0.478041 1.678762,0.539909 1.15721,-0.504895 1.71205,0.307383 1.6734,1.593388 1.120868,-1.448886 1.773301,-0.482837 2.108699,0.659738 1.250342,-0.591295 2.142356,-0.228131 2.785416,1.142831 0.704408,0.328902 0.758936,0.51041 1.387331,0.908207 0.495524,0.559551 0.918689,1.711332 0.446263,2.202392 -0.202823,0.210822 -1.538989,0.467656 -2.709604,-0.198263 l -0.99357,-1.329681 c -0.724438,-0.411678 -1.127656,-0.517137 -1.659544,-1.293484 -0.60965,-0.0854 -1.097874,-0.247356 -1.708711,-0.932795 -1.055238,-0.0103 -1.040123,-0.01381 -2.342477,-0.399134 -0.43593,0.24359 -0.975917,0.307284 -1.687247,-0.275313 -0.980288,0.07781 -1.048711,-0.217295 -0.952877,-1.082593 l 0.694531,-1.2237"
   id="path27"
   style="display:inline;fill:#ffffff;fill-opacity:1;stroke:none;stroke-width:0.0881944;stroke-linecap:butt;stroke-linejoin:miter;stroke-dasharray:none;stroke-opacity:1" />
	<path
   id="path8"
   style="display:inline;fill:#000000;stroke:none;stroke-width:0.176389;stroke-dasharray:none"
   d="m 81.429655,18.494482 c -5.891329,0.836037 -10.598656,3.92223 -15.160832,7.582483 -4.280812,3.611907 -9.284555,6.209438 -13.515454,9.87485 -0.04914,1.773046 -6.981533,3.496016 -3.727938,3.471106 0.819817,0.46952 -1.133969,6.819583 -4.382161,7.590234 -3.455834,2.635552 -0.657673,2.199502 1.810742,1.207161 -1.496248,4.231912 -3.503266,9.47878 -5.376933,13.992428 -3.729755,3.780181 -2.487647,9.727058 -5.197099,13.579016 -1.279763,4.20564 -3.315848,6.810725 -7.864636,7.426937 -5.546998,3.350168 1.888683,0.804097 3.628203,-0.243913 0.425355,-0.701185 -0.298114,5.484167 2.487186,1.459859 -0.374595,2.832306 -2.197702,5.676767 -0.738973,8.782927 0.501901,3.51176 1.645809,8.1821 0.660425,12.61783 -1.069206,4.52738 2.493585,0.94569 2.954858,2.78691 0.221265,5.23365 1.191782,8.79851 -0.750858,14.01206 1.504615,5.80122 2.74701,-6.90771 6.77478,-4.50153 2.608458,3.11032 5.097373,0.86629 6.052344,-2.37195 3.285265,-7.15211 0.09379,10.03647 5.410522,5.19917 0.903258,-3.4755 -1.79088,-10.74698 4.580599,-9.31778 -2.158718,-1.49465 -6.34325,-4.98891 -3.232361,-8.77879 0.41841,-2.07764 6.100447,-10.854035 1.905827,-5.629111 -3.746044,6.653891 -1.841995,-4.407456 0.587561,-6.275069 4.464153,-0.560423 1.869883,7.66452 -0.337964,9.73739 -0.496415,4.81679 6.827744,9.24989 3.785816,14.90813 -3.885478,4.46891 -3.413731,10.62892 -6.005318,15.66829 -2.237151,6.78786 2.664056,-1.83502 2.589506,-4.1801 0.900941,-6.02546 4.7257,-10.90399 6.060095,-16.78347 2.518751,-4.69985 3.490388,-9.8673 5.545915,-14.728817 1.22831,-4.06258 4.223051,-7.698406 8.511625,-9.168432 3.52266,-4.273327 7.675322,0.137105 2.715596,2.868558 -1.326473,-3.946369 -5.617248,2.257886 -7.79849,3.285588 -2.373718,4.824638 0.985175,-0.666807 3.032373,-0.944129 5.923647,-3.670382 3.45177,3.330506 1.638143,5.998084 -2.45861,2.116879 -2.753819,4.472938 -4.404382,7.125138 -4.173005,4.05529 -6.678484,8.74537 -8.151441,14.1671 -2.523575,3.30522 0.34942,4.7106 2.951241,2.02985 6.012101,-4.18542 2.315077,3.95437 0.591695,6.17688 1.450478,6.54186 6.50238,-5.76866 7.371127,-2.61896 -0.01851,5.6081 -2.788336,11.33177 -2.413807,16.58142 2.804666,-0.77365 3.273974,-4.58842 3.900538,-7.14789 1.09593,-5.51087 1.17729,-11.26826 3.293339,-16.60932 -0.09029,-4.62149 2.435483,-5.63176 6.481258,-6.17327 5.066947,-3.17564 2.677327,2.81365 0.797884,4.91598 -4.288249,4.22977 -3.831224,10.62022 -5.694226,16.03623 -0.874625,5.1486 2.570459,2.3105 2.443778,-1.02629 2.991286,-5.27223 6.013229,-10.70805 10.429855,-14.95723 3.255684,-4.38942 0.884599,-11.59713 6.608377,-14.45596 1.89541,-2.645168 3.52972,-3.023595 2.1146,0.74207 0.1926,5.51989 0.15193,11.27202 1.98386,16.52458 1.52664,2.10771 -2.2643,13.01633 0.68213,7.77988 2.07931,-3.53057 0.99461,-8.13343 1.76217,-12.26127 2.81103,-2.2021 4.20843,6.48792 3.72535,9.12193 -2.28787,3.96322 3.49809,7.67737 4.0566,2.35748 1.03382,-5.9072 -2.2775,-11.73569 -0.56534,-17.74207 0.21825,-8.11861 3.25866,2.56001 1.83348,5.23637 -2.21635,3.98888 2.13782,6.22795 2.23552,1.36994 -0.0249,-3.57974 5.57502,-4.82875 3.82768,-8.32455 0.79396,-2.19586 0.34684,-5.01704 2.84323,-0.84336 2.16378,1.42107 4.63322,12.00955 4.14135,5.49992 -0.16147,-4.2226 -4.20678,-7.48302 -6.86469,-10.67067 -2.43177,-3.52814 -1.96966,-8.504112 -2.93161,-12.651933 0.85628,-5.751779 1.39044,-11.551084 0.9648,-17.367933 0.30873,-5.832973 -2.32531,-11.116183 -3.54862,-16.672367 1.49842,-4.76085 -1.22597,-8.869138 -0.73122,-14.297835 -2.86923,-3.113487 -3.84638,-7.899626 -7.4874,-10.543026 -6.08676,-1.117894 -8.43349,-7.705457 -14.414106,-8.901782 -3.262989,-1.542824 -5.734942,-3.685889 -9.213908,-3.795117 v -4e-6 c -0.496995,-0.0156 -1.014697,0.01017 -1.558044,0.08527 3.242802,2.838603 -2.121237,2.207772 -3.704167,2.184879 z m 21.575425,16.934363 c 2.57886,3.348913 1.98165,7.6543 -0.1695,10.980725 0.35829,-3.559221 -5.639949,-8.311161 -10.242782,-5.706628 -4.764074,2.778888 2.508926,6.049862 0.403593,8.312671 0.38795,2.712198 5.747145,-0.04764 6.637321,4.076237 1.830418,-4.202618 0.628398,2.774502 0.413408,5.391919 -0.514774,4.19986 -1.009118,0.756532 -1.950265,1.312581 -1.173821,4.288697 -8.399425,3.81572 -11.09183,7.908561 -4.385755,4.202588 2.65424,0.0371 4.101042,-1.36064 -1.410897,0.959788 -2.774559,4.665642 -5.296834,4.965588 h -5.17e-4 l -0.877983,0.359668 -1.016475,-0.405143 c -1.081275,-1.648295 3.921632,-4.385359 1.117761,-4.017843 -3.437683,4.448992 -10.101635,2.384024 -12.648324,-1.449007 -2.488274,2.254465 -5.000229,-0.209491 -2.898531,-3.488159 2.079888,-5.567201 -1.301934,-1.017009 -2.478918,1.335319 -2.714372,-0.841648 -0.881437,-4.548982 -0.195854,-5.524211 1.633167,-3.328352 1.442924,-7.339348 2.885095,-11.207584 -0.04019,-3.889677 1.424103,-7.640934 5.553667,-8.303886 -1.023313,-2.489335 6.508114,-7.675127 2.351277,-3.38584 -1.970539,3.746412 1.929459,0.937679 3.096969,0.627869 0.754272,-0.411943 4.626989,0.437234 3.715535,1.455208 -1.753083,1.042983 -9.386157,-1.301607 -7.30653,2.108398 3.359726,3.434377 9.011914,5.967658 12.002368,0.928109 3.552795,-5.614991 -4.761108,-9.688486 -9.274886,-7.28741 0.252721,-2.805868 3.274033,-5.29905 6.196004,-5.415174 v 0 c 0.674301,-0.0268 1.342976,0.07334 1.971456,0.325045 3.556385,0 11.332235,0.807268 15.003733,7.463627 z M 63.896875,82.485402 c 2.352627,4.076119 0.440431,-3.663937 3.897953,-1.653129 -0.441896,4.584266 7.152211,0.08593 4.763534,3.458704 -5.147609,5.021054 3.344387,0.221557 5.056022,-1.39423 -0.0975,-2.076365 6.801671,-6.456914 5.002795,-3.481441 -2.180584,5.884573 -9.330342,7.20748 -11.973429,12.168249 -3.123639,5.545482 -3.98933,11.887515 -6.924642,17.490925 -0.659639,3.76758 -2.867524,-5.52941 -2.810164,-6.49728 -0.671504,-1.76045 0.385501,-10.022709 1.635559,-7.61659 0.355378,-1.585165 -2.185156,-6.813052 -2.270146,-8.859924 -2.266387,-4.106981 0.115885,-10.225526 1.412834,-14.765507 0.691572,-1.474992 1.011143,-2.001853 1.115177,-1.928565 0.284428,0.568856 -1.346977,5.765306 -0.675411,7.454842 3.864402,3.864402 -0.345642,3.690322 1.769918,5.623946 z m 3.065446,6.033224 c 0.32091,-1.836685 0.190084,-2.623491 -0.0832,-2.715597 h 10e-7 c -0.455471,-0.153509 -1.30695,1.62376 -1.123446,3.692281 -0.234252,5.089495 1.413585,1.371909 1.206645,-0.976684 z M 81.300464,40.470915 c -1.652482,-0.929295 -2.084887,-1.303885 -1.878955,-1.318266 0.34322,-0.02397 2.459673,0.953169 3.657658,2.034501 -0.654311,0.220003 -1.401744,-0.186202 -1.778703,-0.716235 z m -7.217131,-0.09663 c 0.347153,0.391626 1.139744,0.379799 1.579164,0.356823 1.376365,-0.136476 0.831357,-1.285965 0.117364,-1.27329 -0.713992,0.01268 -1.219082,0.263798 -1.696528,0.916467 z m 16.210897,2.548676 c -0.183324,-0.0091 -0.443583,0.366437 -0.767395,1.460893 1.17705,2.057626 1.317368,-1.433516 0.767395,-1.460893 z m 9.77873,3.166215 c -1.305513,0.61492 -6.476002,-1.437145 -1.916161,-0.604614 0.07751,-0.536055 0.382824,-0.741551 0.780314,-0.72192 2.015317,0.503829 3.022937,2.442422 2.414327,3.391525 -1.24961,3.130121 -1.008,-1.03586 -1.27848,-2.064991 z M 80.99919,48.41875 c 0.826624,-2.052691 -0.198183,-3.012214 -1.715657,-3.038574 v 0 c -1.517475,-0.02636 -3.527418,0.880251 -4.671033,2.559533 v 0 c 1.847748,0.5632 4.289618,-2.03911 6.38669,0.479041 z m 8.404655,0.958081 c 1.74683,-0.945851 3.390296,-0.307482 1.302763,-3.286104 -0.836287,0.721968 -6.139269,4.684606 -1.806608,5.52111 1.878955,0.992923 1.866599,-1.65646 0.503845,-2.235006 z m -4.869472,-0.239262 c 1.809025,-1.479691 0.226219,-2.11464 -1.166337,-2.084627 -2.091797,0.09877 -1.511483,1.14246 -0.02429,1.90531 z M 96.8375,48.815623 C 94.887686,47.52587 94.503261,47.06767 94.857259,47.114952 v 0 c 0.589998,0.0788 3.231376,1.561469 4.096908,2.935221 C 97.81835,50.837039 97.88183,48.941755 96.8375,48.815623 Z M 85.968396,61.895445 c 1.130329,0.0907 2.451095,0.569159 3.468005,-0.165882 2.870079,-4.461231 -3.011602,-9.458062 -7.127213,-10.625708 -0.724596,-0.435086 -1.765251,-0.69627 -2.903699,-0.780314 -0.426918,-0.03152 -0.867576,-0.03823 -1.310514,-0.01964 v 3e-6 c -3.100571,0.13017 -6.311867,1.493295 -5.688542,4.159953 v 0 c 2.944671,4.048162 8.828201,5.892058 13.561963,7.431588 z M 99.321818,51.230847 c -0.07554,-0.180767 -0.147562,-0.546249 -0.04932,-0.562107 0.485809,0.217692 0.159878,0.826594 0.04932,0.562107 z M 92.683232,57.6032 c 0.27793,5.369071 1.644134,-3.509326 0.695564,-4.491198 -0.139391,-1.761353 -0.475724,-2.287841 -0.936893,-2.245858 -0.768616,0.06997 -1.883983,1.719566 -3.012736,1.865002 1.581758,1.628356 4.392634,0.983984 3.254065,4.872054 z m -9.792684,-4.159952 c 0.684298,1.380128 -2.278647,-0.756219 -3.43855,-0.981336 -3.435352,-0.326128 -2.8779,-0.839812 -1.310514,-0.892452 1.567385,-0.05264 4.14475,0.355609 4.749064,1.873788 m -4.080371,0.814937 c -0.465775,0.874709 -0.933672,1.695746 -1.208195,2.628263 -0.3492,0.113586 -0.76371,0.06758 -1.263489,-0.287321 0.214429,-1.063946 0.595576,-2.008715 1.047998,-2.902665 0.155271,-0.152439 0.319816,-0.254835 0.489892,-0.259932 0.355729,-0.01066 0.705986,0.296108 0.933794,0.821655 M 77.159115,53.8086 c -0.381521,0.871432 -0.83996,1.744844 -1.100708,2.689241 -0.833206,0.03404 -0.916333,-0.261991 -0.82579,-1.07952 l 0.694531,-1.223698 c 0.0522,-0.319571 0.336011,-0.512105 0.624769,-0.567407 0.251426,-0.04815 0.497323,0.01485 0.607198,0.181384 m 3.386873,1.99471 c -0.132602,0.524081 -0.287933,1.009497 -0.521415,1.360641 -0.771471,-0.01399 -1.01512,-0.05621 -1.994194,-0.345716 0.130247,-0.851283 0.539612,-1.673422 1.114661,-2.477885 0.180421,-0.05097 0.349916,-0.07917 0.495577,-0.06201 v -10e-7 c 0.59119,0.06964 0.883039,0.678582 0.905371,1.524971 m 5.972762,0.363285 c -1.770146,-1.000029 -2.124817,-1.499662 -1.825728,-1.584399 0.498481,-0.141228 2.812559,0.870016 3.413228,2.637048 -0.174213,1.441795 -1.48844,-0.873983 -1.5875,-1.052649 z m -4.697388,1.92133 c -0.561273,-0.09029 -1.031112,-0.26739 -1.606103,-0.912606 0.120573,-0.665969 0.485977,-1.250765 1.015442,-1.777152 0.14728,-0.07849 0.285757,-0.118802 0.411344,-0.108004 v 0 c 0.298655,0.02568 0.537969,0.277478 0.726571,0.631486 v 0 c -0.01448,0.794065 -0.165651,1.529549 -0.547254,2.166276 z m 3.510897,-0.460437 c -0.680998,0.532319 -1.253059,1.030417 -1.772502,1.760616 -0.6144,-0.346459 -1.00436,-0.505362 -1.438671,-1.037146 0.154127,-0.745301 0.555556,-1.317762 1.047998,-1.826245 0.122253,-0.03361 0.256401,-0.100352 0.371036,-0.112138 v 0 c 0.747147,-0.07682 1.32656,0.344114 1.792139,1.214913 v 0 m -0.939994,2.856157 -0.618567,-0.827855 c 0.376284,-0.671535 0.892858,-1.290695 1.812292,-1.758549 v -2e-6 c 0.3647,0.186791 0.618792,0.36134 0.861447,0.54622 v 0 c -0.458774,0.818441 -1.05082,1.565457 -2.055172,2.040186 z m 2.894397,0.44597 c -0.193093,0.200708 -1.412149,0.419013 -2.538863,-0.132808 0.683334,-0.534938 1.359312,-1.04683 1.970939,-2.158008 v -3e-6 c 0.04897,0.03316 0.06427,0.05185 0.121956,0.08837 v 0 c 0.495524,0.559551 0.918394,1.711389 0.445968,2.202449 z m -3.137793,2.834962 c 0.712833,-2.271293 -4.420142,-2.37711 -6.128825,-3.330546 -1.315182,-0.526557 -2.129886,-0.724793 -2.563668,-0.702282 v 4e-6 c -1.879721,0.09755 3.388854,4.346126 6.035291,4.043164 v 0 c 0.878656,0.146697 1.778066,0.107512 2.657202,-0.01034 z" />
	<path
   d="m 75.818655,137.17861 -0.412185,0.38268 c 0.459812,-2.68877 1.886264,-3.49003 0.412185,-0.38268 m 3.400669,-16.2224 c -1.410771,3.85729 -0.845847,9.64002 -2.738914,12.52608 1.231626,-4.10411 0.523515,-8.71294 2.738914,-12.52608 m 14.418391,-9.70175 c 2.00646,-2.19209 -0.679713,5.64731 -1.958691,6.83348 -2.977094,3.49475 -4.357956,8.04553 -7.093344,11.54134 1.971061,-6.6046 6.488725,-12.02008 9.052035,-18.37482 m 12.274825,-1.50167 c 2.07792,5.88558 1.58631,12.51317 0.25424,18.51512 -0.3152,0.50579 -0.63553,-1.48873 -0.47274,-0.84463 v 0 c 1.70583,-5.4422 0.0596,-13.99245 0.2185,-17.67049 v 0 m -27.400528,6.13051 c -1.867852,3.09106 -3.672415,7.76092 -6.35263,10.81805 -0.481944,-0.075 -1.475999,1.35161 -1.897751,0.58711 3.70272,-3.09209 3.854313,-9.7138 8.250381,-11.40516 m -1.900272,2.17983 c -1.192024,0.0516 -0.232382,1.8841 0,0 m 39.29736,5.10129 c -0.0275,1.31017 0.3594,3.43787 -1.07993,4.13139 0.69575,-2.21511 -0.40473,-10.59338 1.07993,-4.13139 M 39.512168,105.81105 c 0.976906,5.13518 1.261986,10.98397 -1.918153,15.45315 l 0.167306,-1.14337 c 2.079583,-3.93797 0.653535,-13.39126 1.750847,-14.30978 v 0 m 38.860847,3.51918 c 2.306608,-2.81003 4.886715,-7.58714 8.720377,-7.43018 -4.631264,4.97979 -8.361252,11.52788 -14.228247,15.26922 -2.171851,1.29667 -4.013435,3.59258 -6.719312,3.66672 v 0 c 3.767476,-4.2488 9.137027,-6.54139 12.227182,-11.50576 m -25.149798,6.56082 c -0.78684,0.83694 0.221101,7.37734 -1.054859,3.68043 -0.951027,-2.37578 1.171479,-10.41026 1.054859,-3.68043 m 25.622613,4.54728 c 0.744613,-4.31926 2.517267,-1.98402 0,0 m 32.37171,-19.01418 c 0.74295,-2.460889 -1.17208,-1.538123 0.3842,-4.667338 1.70524,-1.797242 -0.14129,-9.198455 1.76872,-7.856916 1.94958,5.90817 -1.44454,12.013724 0.009,18.024194 0.31125,3.88991 2.16708,7.9279 1.06462,11.80696 h -1.2e-4 c 0.16864,-6.02424 -4.49208,-11.22481 -3.22642,-17.3069 v 0 m 1.75954,5.59981 c -0.6388,-1.333 -0.46337,1.26745 0,0 m -0.26458,-9.937493 c -0.7858,-0.992657 -0.41465,1.478949 0,0 m -62.559465,4.213483 c 1.385695,-6.164644 1.356969,-12.584026 0.747056,-18.786771 1.831398,-4.602213 2.394431,-9.557824 4.582889,-14.035012 -0.784227,4.406935 -0.672984,9.27591 -3.060568,13.240216 1.115095,2.348761 -1.491854,7.001205 0.839419,7.876794 0.529053,5.947534 -1.538546,11.298473 -4.172344,16.666933 -2.154325,3.13661 -0.49366,3.71616 -2.02302,5.95022 1.992574,-1.2369 -2.935509,4.01905 -0.406221,5.19573 0.03778,0.82105 -1.084019,0.8078 -1.177682,-0.0263 v 1e-5 c -3.013468,-5.96407 4.329864,-10.3653 4.670471,-16.08182 v 0 m 67.596695,-0.56383 c -0.14746,-2.587424 0.26978,-5.911514 -1.86381,-6.953233 1.1446,-5.26327 0.79222,-10.121987 0.36296,-15.522819 -0.78667,-4.122231 -0.36818,-5.435456 0.89204,-9.273024 0.68571,5.448141 1.398,11.059204 1.19673,16.450129 -1.0548,7.000004 2.19232,13.554989 2.07277,20.503367 -0.68929,2.90027 2.65404,13.229 -2.6047,11.8884 h 1e-5 c 2.34491,-5.50688 1.29684,-11.50316 -0.056,-17.09282 v 0 m -74.422511,12.71852 c -0.661719,0.33421 -0.896618,3.72496 -1.787636,2.61678 0.160741,-2.3205 4.303833,-7.74409 1.787636,-2.61678 m 34.754744,-9.07297 c 1.721609,-1.76681 4.230928,-3.50453 1.261351,-0.18431 -3.146813,3.33607 -5.788864,7.64085 -10.384304,9.12346 1.674403,-4.14049 6.778281,-5.21143 9.122953,-8.93915 m 18.569247,5.84206 -0.0384,-0.51455 -0.02312,-1.03157 c 0.02626,-5.40906 1.654251,2.12282 0.06152,1.54612 m -9.768355,-2.34761 c 4.053616,-2.39889 4.279204,-7.71138 7.156275,-11.038623 -2.996506,4.071323 -2.231176,12.418533 -7.8886,13.605323 0.434563,-1.42321 4.382881,-3.32782 0.732325,-2.5667 m -43.878307,-0.0671 c -0.20612,0.19916 -0.828377,4.33373 -0.935798,1.98135 -0.465941,-2.21568 2.415102,-6.56925 0.935798,-1.98135 m 79.698792,-3.72192 c -0.0447,1.31832 2.63419,5.71737 -0.62876,4.80459 -0.0351,-2.09792 0.36819,-11.256567 0.62876,-4.80459 m -76.662148,-0.0918 c -0.03919,0.31502 -0.565762,5.14674 -1.062026,2.5837 -1.092308,-2.12681 3.61706,-7.209743 1.062026,-2.5837 M 35.068485,87.576492 c 1.030619,-4.278509 1.58981,-8.678971 3.043089,-12.849064 0.07814,6.010732 -2.42072,11.594359 -3.429779,17.365276 0.699923,4.782157 1.475431,9.972766 0.275867,14.553946 l -0.679514,0.004 10e-7,1.1e-4 C 35.052606,100.3092 33.455288,93.745182 35.068485,87.576492 M 103.67052,97.83639 c -1.47103,2.69146 -4.530895,6.04743 -7.0976,7.0578 1.017985,-2.84897 6.49563,-8.096137 7.0976,-7.0578 m -60.260257,6.22666 c 0.124824,-2.95624 1.179583,-0.54949 0,0 m -1.30195,-16.749038 c -0.624287,5.125635 -1.605735,10.259688 -2.816303,15.290078 -0.02238,-0.86383 2.53e-4,-1.72787 0.01722,-2.59155 h -10e-7 c -0.241988,-4.767872 1.204177,-8.656524 2.799084,-12.698528 v 0 m 72.635207,14.320828 c -0.25817,-4.634848 1.03785,1.17699 0,0 M 44.774723,96.085103 c -0.0944,1.833754 -2.127345,5.145077 -3.415949,4.787337 1.088145,-2.456078 4.293597,-12.023136 3.415949,-4.787337 m 44.254747,4.164377 c 2.765475,-2.579316 -1.850463,2.40351 0,0 m -6.921455,-6.402132 c -0.07358,0.125729 -2.187516,3.477523 -1.639935,1.912699 1.014271,-2.429763 4.163701,-7.116237 1.639935,-1.912699 M 120.12876,77.828455 c -0.0922,-3.206042 0.61512,-12.178735 -0.82397,-11.870612 -0.64942,3.578421 -1.08066,-4.349516 -1.66351,-5.438275 -0.0399,-2.764987 -1.48372,-7.820886 -1.351,-9.166285 5.18269,10.345781 6.11015,22.467972 4.03337,33.761931 -1.20758,3.109148 1.46381,9.487282 0.90321,10.304953 -3.62265,-5.23931 -0.60788,-11.789986 -1.0981,-17.591712 m -9.67166,0.355847 c 0.73798,5.686556 0.11317,11.474576 -1.62734,16.916622 l 0.0572,-0.730837 c -0.49632,-5.462243 1.52729,-10.745199 1.57013,-16.185785 h 1e-5 M 43.195918,92.204449 c 0.319061,-0.116504 -0.908464,2.333383 -0.598012,0.581748 0.342896,-2.497769 1.812073,-3.805203 0.598012,-0.581748 M 101.63399,77.55591 c 1.60299,2.369508 -2.644889,8.944217 -5.048935,11.30489 -1.367822,1.212507 -3.010632,3.366856 -4.371345,3.743407 v 0 c 3.540059,-4.811821 7.589288,-9.327844 9.42028,-15.048297 m -10.068168,1.218836 c 0.748024,4.983609 -4.369103,8.897354 -6.491238,13.15906 -0.346651,0.843917 -0.85455,0.341447 -0.232764,-0.321789 2.828057,-3.950618 4.498613,-8.552214 6.724002,-12.837271 M 43.216041,71.219727 c -1.762883,5.349908 -4.072818,10.480077 -4.547978,16.140475 -0.143595,0.843758 -1.037163,3.55296 -1.092189,1.029425 -0.674725,-6.085646 2.017606,-13.039487 5.640167,-17.1699 m 3.32394,13.798343 c 0.213992,0.892868 -0.46934,5.026316 -0.683652,1.839807 -0.824744,-2.580743 1.634251,-6.751823 0.683652,-1.839807 M 58.321283,63.328596 c -0.306306,-2.865326 2.7738,-9.56213 1.913109,-3.039534 -0.594701,1.744756 -0.745816,6.674654 1.480983,4.897174 0.441267,1.125774 -0.438607,5.286028 -1.828048,2.563846 -2.399892,5.258733 -1.323042,11.452726 -2.824128,16.889809 -0.0013,0.926966 1.158989,6.027079 -0.92594,2.985106 v 0 c -1.073815,-8.160956 1.811874,-16.165839 2.184024,-24.296401 v 0 m 40.390874,8.187064 c 1.077509,-2.90819 3.778123,-3.119954 2.056783,0.326325 -1.721395,5.493032 -4.158684,10.891259 -8.055143,15.145263 l -0.583125,0.214745 -0.654812,-0.04762 c 3.406809,-4.76895 5.028487,-10.427849 7.236297,-15.638713 M 32.65596,83.939093 c 3.122425,-5.736931 0.529347,1.574826 0,0 m 77.47939,-12.512777 c 0.21977,4.251708 -1.56529,8.510792 -3.89962,11.983617 1.4803,-3.427794 2.70616,-11.083754 3.89962,-11.983617 m -1.20659,-11.408958 c 1.63878,-1.717942 -1.37687,5.143553 -1.82753,6.53984 -1.62626,2.932645 -2.61217,9.922232 -4.17832,10.754085 1.60109,-5.918087 2.43941,-12.126825 6.00585,-17.293925 M 52.904346,52.815305 c 2.646338,-5.463678 5.683021,-10.960918 10.035716,-15.224595 -3.423933,4.570562 -5.191897,8.967806 -7.400522,14.118437 -2.401576,4.205717 -4.951724,8.081085 -6.262566,12.969183 -1.753096,3.582887 -1.665533,9.484388 -3.485041,12.204853 -0.103165,-0.249762 -0.206346,-0.499535 -0.3095,-0.74929 -0.406922,-8.39921 4.479231,-15.751214 7.421913,-23.318588 v 0 m 5.869955,-0.823383 c 2.884572,-5.629995 6.250865,-10.984005 10.479172,-15.736162 3.055117,-3.035301 8.300618,-9.86136 10.369103,-10.121948 -2.981557,4.334797 -6.878488,7.626067 -9.711758,11.910176 -2.440533,3.890536 -6.075075,7.31248 -8.136297,10.837815 -2.292578,4.613295 -5.022903,9.041721 -7.129194,13.685896 -1.841657,3.774866 -1.58396,9.690119 -4.104589,12.456108 -0.403757,-0.2515 -0.505533,-0.806698 -0.269915,-1.192574 v 0 c 1.750206,-7.64982 3.738832,-15.428353 8.503478,-21.839311 v 0 m 56.949349,11.692586 c 0.0968,3.002832 0.85067,7.283419 -1.74567,9.414105 0.75381,-2.347402 -0.64886,-10.648529 1.74567,-9.414105 M 46.276509,55.744114 c 0.605674,-2.768865 4.193292,-6.512443 1.974879,-1.35037 -2.489126,3.287637 -4.220215,9.191596 -4.355821,11.769235 -0.716174,0.51185 -2.916665,7.794356 -3.294469,5.142264 1.371744,-5.351282 3.745342,-10.413452 5.675411,-15.561129 v 0 M 39.6875,65.813357 c 0.995968,-3.994583 2.542811,-1.408914 0,0 m 67.48369,-12.982142 c 0.0291,4.606957 3.2891,-6.450762 2.82694,-8.932229 -1.71052,-6.392833 3.2177,2.266577 1.27039,4.943523 -0.68375,2.686747 -2.6981,11.102044 -3.75637,10.615265 1.23273,-2.277239 1.4607,-6.325237 -0.79291,-1.962819 -1.5512,2.273483 -2.72879,4.936942 -4.84624,6.746652 1.73246,-3.687948 3.37463,-8.474571 5.29819,-11.410392 m -51.075472,9.191522 c 0.436084,-3.21094 0.532713,1.21058 0,0 m -12.695414,-2.93889 c 0.437628,-3.450073 1.583755,-1.605238 0,0 m 20.86384,-3.542658 c -0.09241,0.510336 -1.476723,3.922482 -1.153967,1.410368 v 0 c -0.279656,-2.452845 3.405179,-5.370255 1.153967,-1.410368 m 48.810136,1.260757 -0.32619,0.744931 c -0.3547,-2.94171 1.80335,-4.905884 0.32619,-0.744931 m -5.40663,-10.367569 c -0.84796,3.061252 -1.35032,6.586224 -3.55619,8.99583 1.5665,-2.766421 1.74457,-6.667694 3.55619,-8.99583 m 8.81516,3.44068 c -1.29386,-2.62652 1.77136,0.903961 0,0 m -73.091144,-1.4371 c 1.368152,-3.075569 2.31444,0.738568 0,0 m 72.201524,-4.521671 c 0.0105,0.182814 2.78308,4.648496 1.18908,2.933281 -2.42017,-1.441746 -4.35953,-8.166617 -1.18908,-2.933281 m -66.170417,-1.38339 c -0.508891,0.242752 -2.896542,4.802263 -2.287456,2.978621 0.658722,-2.213963 5.744211,-8.237067 2.287456,-2.978621 m 3.468939,-2.05625 c -0.386542,0.303427 -4.536124,7.628765 -2.997376,4.142551 0.829171,-1.728451 4.971188,-9.821788 2.997376,-4.142551 m -1.430254,4.502521 c 2.722653,-2.228085 -1.756243,2.297593 0,0 M 66.950233,30.208574 c 1.759457,-1.75972 5.712097,-6.203322 6.455217,-5.845824 -4.283725,3.652479 -6.053816,8.779223 -10.756535,11.719592 -3.5555,2.157035 -5.186919,5.954404 -7.349466,9.132185 0.503874,-7.061333 7.713956,-10.088019 11.650784,-15.005953 m -7.94815,15.199863 c 1.414055,-2.217245 0.848277,0.05589 0,0 M 111.00445,35.9667 c -0.46357,2.424199 -2.50533,-7.339701 0.44382,-2.408586 2.35209,2.878585 6.80738,8.861838 5.58179,11.148416 l -0.31419,-0.722114 -0.22496,-0.422389 c -1.84136,-2.029392 -4.48505,-8.50956 -5.48646,-7.595327 v 0 m -63.738541,4.331847 c 1.977871,-3.355236 4.54424,-1.030735 0,0 m 69.463991,-1.27139 c -0.54474,-2.007844 1.22504,2.02535 0,0 M 57.397237,34.670885 c -1.404974,0.572574 -1.517661,2.24966 -2.454394,3.250432 v 0 c -0.964969,-3.217567 8.243603,-6.857362 2.454394,-3.250432 m 44.359783,-6.816158 c 4.82278,0.117404 7.22112,6.769607 6.3746,10.04679 1.50798,-4.595961 -6.27307,-9.831366 -6.3746,-10.04679 m 6.42116,1.612365 c 0.32023,-0.137133 4.70167,3.193507 2.35529,2.166595 -1.7665,-0.534593 -7.5218,-4.293653 -2.35529,-2.166595 M 76.30726,21.197424 c -4.541696,1.945857 -7.516896,6.034891 -11.748927,8.217005 3.226047,-3.08979 8.439533,-8.166351 11.748927,-8.217005 m -0.577837,7.00666 c -1.203227,1.365956 -2.465553,1.561215 -0.802143,0.292912 1.798892,-1.666369 3.707012,-2.339262 0.802143,-0.292912 M 96.002608,26.969638 95.24273,26.550047 c -4.007405,-1.912665 0.91143,-2.847799 0.759878,0.419591 m -8.321792,-5.34533 c -1.321649,0.361608 -2.562783,1.242793 -3.959936,1.257178 -0.06837,-4.233747 11.640511,-1.970557 3.959936,-1.257178 m 4.195744,1.47664 c 2.051886,-0.536582 0.541674,0.532676 0,0 m -2.57969,-0.611366 c -1.355516,-0.76585 3.459905,0.751331 0,0 m -9.771823,-0.795677 c -1.013544,0.353511 -2.139987,0.618422 -3.201967,0.28142 1.925198,-1.456916 8.374269,-3.002536 3.201967,-0.28142 m 15.038618,-1.133817 c 0.33542,0.367181 2.768113,0.825492 2.009255,1.437007 -2.534011,-0.83037 -7.104391,-4.210779 -2.009255,-1.437007 M 83.54219,19.403937 c 1.456366,-0.550362 0.332186,0.570887 0,0"
   fill="none"
   id="path9"
   stroke="#ff0000"
   stroke-width="2"
   style="display:inline;fill:#666666;stroke:none;stroke-width:0.5;stroke-dasharray:none" />
	<path
   d="M 0,0 H 158.75 V 158.75 H 0 V 0"
   height="158.75"
   id="rect1"
   style="display:none;fill:#ffffff;stroke-width:5.39369;stroke-linecap:round;-inkscape-stroke:none"
   width="158.75"
   x="0"
   y="0"
   sodipodi:insensitive="true" />
	
	
	
	
	
	
	
</svg>
