<?xml version="1.0" ?>
<svg xmlns="http://www.w3.org/2000/svg" xmlns:ev="http://www.w3.org/2001/xml-events" xmlns:inkscape="http://www.inkscape.org/namespaces/inkscape" xmlns:sodipodi="http://sodipodi.sourceforge.net/DTD/sodipodi-0.dtd" xmlns:svg="http://www.w3.org/2000/svg" xmlns:xlink="http://www.w3.org/1999/xlink" baseProfile="full" height="158.75mm" id="svg1" inkscape:version="1.4 (86a8ad7, 2024-10-11)" sodipodi:docname="Bob Marley plano.svg" version="1.1" viewBox="0 0 158.75 158.75" width="158.75mm" xml:space="preserve">
	<defs/>
	<path d="M 58.710983,129.14676 C 52.46634,131.9509 46.252479,134.8288 39.919585999999995,137.43096 C 37.344623,134.20742 33.773239,127.7935 40.577479,127.40235 C 42.959334,126.00012 47.996798,125.33765 44.458537,122.01984999999999 C 41.525788,118.75721999999999 43.669304,115.36783999999999 47.794557,116.58780999999999 C 52.773019999999995,117.66239999999999 56.674605,114.41154999999999 60.71601,112.16056999999999 C 82.18051299999999,99.754217 103.19685999999999,86.591276 124.49094,73.900046 C 127.60240999999999,72.5346 129.01682,70.74197600000001 124.82002,70.968761 C 120.10353,70.419481 130.41198,67.927936 132.05743,67.250377 C 138.56075,68.551967 127.86519000000001,73.142294 132.15994,75.620223 C 130.78455,76.77480899999999 126.01456,81.183728 130.57234,79.02591699999999 C 135.00956,74.90724999999999 139.88304,79.27876199999999 143.154,82.470355 C 145.23731999999998,83.839522 147.86783,84.551805 144.62718999999998,86.827294 C 142.61754,90.182441 150.86592,94.796004 146.12344,97.963471 C 138.36162,102.881 130.72845999999998,108.16378 122.63927999999999,112.61363 C 99.78387099999998,125.24033 76.50598299999999,137.36897 51.94498399999999,146.36342 C 48.51303099999999,148.719 46.63077299999999,147.33697999999998 45.27450199999999,143.86872 C 40.993838999999994,138.19965 49.25204599999999,136.9562 52.719424999999994,134.78545 C 59.75733399999999,131.13475 66.853518,127.59412 73.811347,123.79096 C 68.231573,123.19694 63.86165,127.73251 58.710983,129.14676 M 131.5898,91.165913 C 130.68374,91.619781 129.81609,92.246758 129.79784999999998,92.797678 C 130.38115,93.10992200000001 131.54485,92.496373 132.38441999999998,91.83605200000001 C 133.54949,90.91971900000001 134.09036999999998,89.91331600000001 131.58979999999997,91.165913 L 131.5898,91.165913 M 138.54588999999999,91.080073 C 141.63690999999997,89.889606 145.36724999999998,89.331771 143.83479999999997,85.923564 C 141.49282999999997,86.518596 139.62131999999997,88.321222 137.5818,89.539973 C 133.26645,91.25654300000001 135.59198999999998,92.87244100000001 138.54588999999999,91.080073" fill="none" id="path1" sodipodi:nodetypes="ccccccccccccccccccccscsscccc" stroke="#ff0000" stroke-width="2" style="stroke:#ff0000; stroke-width:2; fill:none"/>
	<path d="M 77.106405,39.414648 C 75.026778,36.004643 82.659852,38.349233 84.41293499999999,37.30625 C 85.324389,36.288275999999996 81.486611,35.40416 80.648485,35.7602 C 79.77446599999999,35.510981 75.629892,38.969584999999995 77.600431,35.223172999999996 C 81.757268,30.933885999999994 74.225841,36.11967799999999 75.249154,38.609013 C 71.11959,39.271964999999994 69.65530100000001,43.023222 69.695487,46.912898999999996 C 68.253316,50.781135 68.443559,54.792131 66.810392,58.12048299999999 C 66.124809,59.09571199999999 64.29187399999999,62.803045999999995 67.00624599999999,63.644693999999994 C 68.18323,61.292365999999994 71.565052,56.74217399999999 69.485164,62.309374999999996 C 67.383466,65.588043 69.895421,68.051999 72.383695,65.797534 C 74.930384,69.630565 81.594336,71.695533 85.032019,67.246541 C 87.83589,66.879025 82.832983,69.61608899999999 83.914258,71.26438399999999 L 84.930733,71.66952699999999 L 85.808716,71.30985899999999 C 88.040744,70.71691799999999 89.903164,67.162567 91.10606700000001,66.34427099999999 C 89.659265,67.74200699999999 82.61927000000001,71.90749899999999 87.00502500000002,67.704911 C 89.69743000000001,63.612069999999996 96.92303400000002,64.08504699999999 98.09685500000002,59.79635 C 99.03800200000002,59.240300999999995 99.53234000000002,62.683628999999996 100.04712000000002,58.483768999999995 C 100.26211000000002,55.86635199999999 101.46413000000003,48.88923199999999 99.63371200000002,53.091849999999994 C 98.74353600000002,48.967969999999994 93.38434100000002,51.727810999999996 92.99639100000002,49.015612999999995 C 95.10172400000002,46.752804 87.82872400000002,43.481829999999995 92.59279800000002,40.70294199999999 C 97.19563100000002,38.09840899999999 103.19387000000002,42.850348999999994 102.83558000000002,46.409569999999995 C 104.98673000000002,43.083144999999995 105.58394000000003,38.77775799999999 103.00508000000002,35.428844999999995 C 100.10185000000003,30.165341999999995 93.76938000000003,27.805104999999998 88.00134700000002,27.965217999999997 C 87.37286700000003,27.713511999999998 86.70419200000002,27.613375999999995 84.90605600000002,27.684835999999997 C 83.10792000000002,27.756295999999995 80.08660800000003,30.249478999999997 79.83388700000002,33.055347 C 84.34766500000002,30.654270999999998 92.49385900000001,34.867523 89.22223500000001,40.194793 C 85.95061000000001,45.522062999999996 80.46613100000002,42.849025 77.10640500000001,39.414648 L 77.106405,39.414648 M 83.079167,41.18715 C 81.881182,40.105818 79.764729,39.12868 79.421509,39.152649000000004 C 79.215577,39.16702900000001 79.536176,39.667402 81.188658,40.596697000000006 C 81.565617,41.12673000000001 82.424856,41.40715300000001 83.079167,41.18715 M 74.063565,40.077805000000005 C 73.947312,39.277544000000006 75.065866,39.470479000000005 75.489446,39.445133000000006 L 75.48944900000001,39.445133000000006 C 76.76018900000001,39.36909300000001 76.93983300000001,41.00916300000001 74.13501000000001,40.569612000000006 L 74.06357000000001,40.077805000000005 M 90.29423500000001,42.922956000000006 C 90.84420800000001,42.95033600000001 90.70389000000002,46.441475000000004 89.52684000000002,44.383849000000005 C 89.85065200000003,43.289393000000004 90.11091100000002,42.913831 90.29423500000001,42.922956000000006 M 100.07297000000001,46.08917100000001 C 100.59046000000001,47.45048100000001 100.00457000000002,51.40117300000001 101.35145000000001,48.15416200000001 C 102.15262000000001,46.90476400000001 100.12960000000001,44.821532000000005 98.93711800000001,44.762637000000005 C 98.71066800000001,44.755937 98.28797500000002,44.577363000000005 98.15680400000001,45.484557 L 98.15680400000001,45.484557 C 93.596963,44.652026 99.43945000000001,47.178444 100.07297000000001,46.089171 L 100.07297000000001,46.089171 M 74.6125,47.939709 C 75.756115,46.260427 77.766058,45.353815 79.28353299999999,45.380176 L 79.28353299999999,45.380176 C 80.801007,45.406535999999996 81.825814,46.366059 80.99918999999998,48.418749999999996 L 80.99918999999998,48.418749999999996 C 78.902118,45.900599 76.460248,48.50291 74.6125,47.939709 M 88.9,51.611837 C 84.567339,50.775333 90.192104,46.449737 90.706608,46.090727 C 92.794141,49.069349 91.150675,48.43098 89.403845,49.376831 C 90.766599,49.955377000000006 90.77895500000001,52.604760000000006 88.9,51.611837 M 83.34375,48.958252 C 80.773169,47.777962 81.975481,47.082955 83.36804,47.052942 L 83.368038,47.052942 C 84.760594,47.022932000000004 86.3434,47.657878000000004 84.534375,49.137569 L 83.34375,48.958252 M 98.954167,50.050173 C 98.088635,48.676421 95.447257,47.193755 94.857259,47.114952 L 94.857259,47.114952 C 94.503261,47.067672 94.887689,47.525871 96.8375,48.815623 L 96.8375,48.815623 C 97.91214500000001,49.033783 97.731801,51.076202 98.95416700000001,50.050173 L 98.95416700000001,50.050173 M 89.43640100000002,61.729563 C 88.41949100000002,62.464604 87.09872500000002,61.986149 85.96839600000001,61.895445 C 81.23463400000001,60.355915 75.351104,58.512019 72.406433,54.463857000000004 C 71.694061,51.416248 75.99014600000001,50.071412 79.405489,50.323541000000006 L 79.405489,50.323541000000006 C 80.543937,50.40758100000001 81.507374,50.83658400000001 84.133796,51.609945 C 86.760217,52.383307 92.30648000000001,57.268332 89.436401,61.729563 L 89.436401,61.729563 M 99.272493,50.66874 C 99.195033,50.68124 99.223423,50.91108 99.275893,51.09637 C 99.354483,51.373749000000004 99.487115,51.551288 99.39958899999999,50.75039 C 99.341319,50.68766 99.30009899999999,50.664280000000005 99.27246399999999,50.66874 L 99.27249299999998,50.66874 M 92.68323199999999,57.6032 C 93.821801,53.71513 91.01092499999999,54.359502 89.42916699999999,52.731146 C 90.55792,52.585710000000006 91.67328699999999,50.936116000000005 92.441903,50.866144000000006 C 92.903072,50.824164 93.23940499999999,51.350649000000004 93.378796,53.112002000000004 C 94.327366,54.09387400000001 92.96116199999999,62.972271000000006 92.68323199999999,57.6032 M 82.890548,53.443248000000004 C 82.286234,51.92506900000001 79.70886899999999,51.51682100000001 78.14148399999999,51.56946000000001 C 76.57409799999999,51.6221 76.016646,52.13578400000001 79.45199799999999,52.461912000000005 C 79.94106599999999,52.365582 83.574846,54.823376 82.890548,53.443248000000004 M 88.10624999999999,57.21924800000001 C 87.50558099999999,55.45221600000001 85.19150299999998,54.44097200000001 84.69302199999998,54.58220000000001 C 84.39393299999999,54.666940000000004 84.74860199999999,55.16657000000001 86.51874999999998,56.166599000000005 C 86.61780999999998,56.345265000000005 87.93203699999998,58.66104300000001 88.10624999999999,57.21924800000001 M 84.14886899999999,63.76458500000001 C 83.26973299999999,63.88242900000001 82.37032299999998,63.92161800000001 81.49166699999999,63.77492500000001 C 78.84522999999999,64.077887 73.57665499999999,59.82930800000001 75.45637599999999,59.73176100000001 C 76.315873,59.60826500000001 76.91313299999999,59.92489000000001 78.02004399999998,60.43403900000001 L 78.02004399999998,60.43403900000001 C 79.72872699999998,61.38747500000001 84.86170199999998,61.49329200000001 84.14886899999999,63.76458500000001 M 60.274357,86.100686 C 60.359347,88.14755799999999 62.899881,93.375445 62.544503,94.96061 C 61.294444999999996,92.554491 60.23744,100.81675 60.908944,102.5772 C 60.851583999999995,103.54507000000001 63.059469,112.84206 63.719108,109.07448000000001 C 66.65442,103.47107000000001 67.520111,97.12903700000001 70.64375,91.583555 C 73.28683699999999,86.622786 80.436595,85.299879 82.617179,79.415306 C 84.416055,76.43983300000001 77.516888,80.820382 77.61438399999999,82.896747 C 75.90274899999999,84.512534 67.41075299999999,89.312031 72.55836199999999,84.290977 C 74.94703899999999,80.918201 67.35293199999998,85.416539 67.794828,80.832273 C 64.337306,78.821465 66.24950199999999,86.561521 63.896874999999994,82.48540200000001 C 62.84164499999999,81.520921 64.59435599999999,78.022653 62.126957,76.861456 C 61.484941,75.246262 63.11447,69.626478 62.802367999999994,69.406614 L 62.802367999999994,69.406614 C 62.698333999999996,69.333324 62.37876299999999,69.86018700000001 61.68719099999999,71.33517900000001 L 61.68719099999999,71.33517900000001 C 60.390242,75.87516 58.00797,81.993705 60.274357,86.100686 M 66.941132,89.423735 C 66.93453199999999,90.23871 66.752483,90.88565899999999 66.548311,91.402396 C 66.171427,92.35624899999999 65.802744,92.157439 65.80875,91.363006 C 65.75005,91.123944 65.704306,90.88526399999999 65.71225,90.499359 C 65.70304999999999,90.170366 65.75775999999999,89.898843 65.76574,89.569742 C 65.77274,89.28184800000001 65.73034,88.936305 65.75774,88.649342 C 65.79574,87.7356 65.994494,86.932469 66.25021699999999,86.415887 C 66.78174399999999,85.401659 67.09418,85.796995 67.156634,86.516173 C 67.169354,86.92858199999999 67.103504,87.33833299999999 67.055855,87.747102 C 67.06653499999999,88.003544 66.96311499999999,88.259247 66.95913499999999,88.533912 C 66.95513499999998,88.808577 66.96863499999999,89.140427 66.94113499999999,89.42374 L 66.941132,89.423735" fill="none" id="path29" sodipodi:nodetypes="ccccccccccccccccccccccccsccccscccssccccccccsssccssssccccccsscccsssssccccssssccccccccscccscccscccccssccccccccccccssssccsccscccccc" stroke="#ff0000" stroke-width="2" style="stroke:#ff0000; stroke-width:2; fill:none"/>
	<path d="M 81.429655,18.494482 C 75.538326,19.330519000000002 70.83099899999999,22.416712 66.268823,26.076965 C 61.988011,29.688872 56.984268,32.286403 52.753369,35.951815 C 52.704229,37.724861000000004 45.771836,39.447831 49.025431,39.422921 C 49.845248,39.892441000000005 47.891462,46.242504000000004 44.64327,47.013155000000005 C 41.187436,49.648707 43.985597,49.21265700000001 46.454012,48.220316000000004 C 44.957764,52.452228000000005 42.950745999999995,57.699096000000004 41.077079,62.212744 C 37.347324,65.992925 38.589431999999995,71.939802 35.879979999999996,75.79176 C 34.600216999999994,79.9974 32.564131999999994,82.602485 28.015343999999995,83.21869699999999 C 22.468345999999997,86.56886499999999 29.904026999999996,84.02279399999999 31.643546999999995,82.97478399999999 C 32.068901999999994,82.27359899999999 31.345432999999993,88.45895099999998 34.13073299999999,84.43464299999998 C 33.75613799999999,87.26694899999998 31.933030999999993,90.11140999999998 33.39175999999999,93.21756999999998 C 33.89366099999999,96.72932999999998 35.03756899999999,101.39966999999999 34.052184999999994,105.83539999999998 C 32.98297899999999,110.36277999999997 36.54577,106.78108999999998 37.007042999999996,108.62230999999998 C 37.228308,113.85595999999998 38.198825,117.42081999999999 36.256184999999995,122.63436999999999 C 37.760799999999996,128.43559 39.003195,115.72666 43.030964999999995,118.13283999999999 C 45.639422999999994,121.24315999999999 48.12833799999999,118.99913 49.08330899999999,115.76088999999999 C 52.368573999999995,108.60878 49.17709899999999,125.79735999999998 54.49383099999999,120.96005999999998 C 55.397088999999994,117.48455999999999 52.70295099999999,110.21307999999999 59.07442999999999,111.64227999999999 C 56.91571199999999,110.14762999999999 52.731179999999995,106.65336999999998 55.842068999999995,102.86348999999998 C 56.260479,100.78584999999998 61.942516,92.00945499999999 57.747896,97.23437899999999 C 54.001852,103.88826999999999 55.905901,92.826923 58.335457,90.95930999999999 C 62.79961,90.39888699999999 60.20534,98.62382999999998 57.997493,100.69669999999999 C 57.501078,105.51348999999999 64.825237,109.94658999999999 61.783308999999996,115.60482999999999 C 57.897831,120.07373999999999 58.369578,126.23374999999999 55.77799099999999,131.27312 C 53.540839999999996,138.06098 58.442046999999995,129.43810000000002 58.36749699999999,127.09302000000001 C 59.268437999999996,121.06756000000001 63.09319699999999,116.18903 64.42759199999999,110.30955 C 66.94634299999998,105.6097 67.91797999999999,100.44225 69.97350699999998,95.58073300000001 C 71.20181699999998,91.51815300000001 74.19655799999998,87.882327 78.48513199999998,86.41230100000001 C 82.00779199999998,82.13897400000002 86.16045399999997,86.54940600000002 81.20072799999998,89.28085900000002 C 79.87425499999998,85.33449000000002 75.58347999999998,91.53874500000002 73.40223799999998,92.56644700000003 C 71.02851999999999,97.39108500000003 74.38741299999998,91.89964000000002 76.43461099999999,91.62231800000002 C 82.35825799999999,87.95193600000002 79.88638099999999,94.95282400000002 78.07275399999999,97.62040200000003 C 75.61414399999998,99.73728100000002 75.31893499999998,102.09334000000003 73.66837199999999,104.74554000000003 C 69.49536699999999,108.80083000000003 66.989888,113.49091000000003 65.51693099999999,118.91264000000004 C 62.993355999999984,122.21786000000004 65.86635099999998,123.62324000000004 68.46817199999998,120.94249000000003 C 74.48027299999998,116.75707000000004 70.78324899999998,124.89686000000003 69.05986699999998,127.11937000000003 C 70.51034499999999,133.66123000000005 75.56224699999999,121.35071000000003 76.43099399999998,124.50041000000003 C 76.41248399999998,130.10851000000002 73.64265799999998,135.83218000000002 74.01718699999998,141.08183000000002 C 76.82185299999998,140.30818000000002 77.29116099999997,136.49341 77.91772499999998,133.93394000000004 C 79.01365499999997,128.42307000000002 79.09501499999998,122.66568000000004 81.21106399999998,117.32462000000004 C 81.12077399999998,112.70313000000004 83.64654699999998,111.69286000000004 87.69232199999998,111.15135000000004 C 92.75926899999997,107.97571000000003 90.36964899999998,113.96500000000003 88.49020599999997,116.06733000000004 C 84.20195699999996,120.29710000000004 84.65898199999997,126.68755000000004 82.79597999999997,132.10356000000004 C 81.92135499999998,137.25216000000003 85.36643899999997,134.41406000000003 85.23975799999997,131.07727000000006 C 88.23104399999997,125.80504000000005 91.25298699999996,120.36922000000006 95.66961299999997,116.12004000000006 C 98.92529699999997,111.73062000000006 96.55421199999996,104.52291000000005 102.27798999999997,101.66408000000006 C 104.17339999999997,99.01891200000006 105.80770999999997,98.64048500000006 104.39258999999997,102.40615000000005 C 104.58518999999997,107.92604000000006 104.54451999999996,113.67817000000005 106.37644999999998,118.93073000000005 C 107.90308999999998,121.03844000000005 104.11214999999997,131.94706000000005 107.05857999999998,126.71061000000006 C 109.13788999999998,123.18004000000006 108.05318999999997,118.57718000000006 108.82074999999998,114.44934000000006 C 111.63177999999998,112.24724000000006 113.02917999999997,120.93726000000007 112.54609999999998,123.57127000000007 C 110.25822999999998,127.53449000000008 116.04418999999999,131.24864000000008 116.60269999999998,125.92875000000006 C 117.63651999999999,120.02155000000006 114.32519999999998,114.19306000000006 116.03735999999998,108.18668000000007 C 116.25560999999998,100.06807000000006 119.29601999999998,110.74669000000007 117.87083999999997,113.42305000000006 C 115.65448999999997,117.41193000000005 120.00865999999998,119.65100000000007 120.10635999999997,114.79299000000006 C 120.08145999999996,111.21325000000006 125.68137999999996,109.96424000000006 123.93403999999997,106.46844000000006 C 124.72799999999997,104.27258000000006 124.28087999999997,101.45140000000006 126.77726999999997,105.62508000000005 C 128.94104999999996,107.04615000000005 131.41048999999998,117.63463000000006 130.91861999999998,111.12500000000006 C 130.75714999999997,106.90240000000006 126.71183999999998,103.64198000000006 124.05392999999998,100.45433000000006 C 121.62215999999998,96.92619000000006 122.08426999999998,91.95021800000006 121.12231999999997,87.80239700000006 C 121.97859999999997,82.05061800000006 122.51275999999997,76.25131300000005 122.08711999999997,70.43446400000005 C 122.39584999999997,64.60149100000005 119.76180999999997,59.31828100000005 118.53849999999997,53.76209700000005 C 120.03691999999997,49.00124700000005 117.31252999999997,44.89295900000005 117.80727999999998,39.46426200000005 C 114.93804999999998,36.35077500000005 113.96089999999998,31.56463600000005 110.31987999999998,28.92123600000005 C 104.23311999999999,27.80334200000005 101.88638999999998,21.21577900000005 95.90577399999998,20.01945400000005 C 92.64278499999998,18.47663000000005 90.17083199999998,16.33356500000005 86.69186599999998,16.224337000000048 L 86.69186599999998,16.224333000000048 C 86.19487099999998,16.20873300000005 85.67716899999998,16.234503000000046 85.13382199999998,16.30960300000005 C 88.37662399999998,19.148206000000048 83.01258499999999,18.517375000000047 81.42965499999998,18.494482000000048 L 81.429655,18.494482 M 103.00507999999999,35.428845 C 105.58394,38.777758000000006 104.98673,43.083145 102.83558,46.40957 C 103.19386999999999,42.850349 97.19563099999999,38.098409000000004 92.59279799999999,40.702942 C 87.828724,43.48183 95.10172399999999,46.752804 92.99639099999999,49.015613 C 93.38434099999999,51.727811 98.74353599999999,48.967973 99.63371199999999,53.09185 C 101.46412999999998,48.889232 100.26210999999999,55.866352 100.04711999999999,58.483769 C 99.53234599999999,62.683629 99.03800199999999,59.240301 98.09685499999999,59.796350000000004 C 96.92303399999999,64.085047 89.69743,63.61207 87.00502499999999,67.70491100000001 C 82.61926999999999,71.90749900000002 89.65926499999999,67.742011 91.106067,66.344271 C 89.69516999999999,67.30405900000001 88.331508,71.00991300000001 85.80923299999999,71.309859 L 85.80871599999999,71.309859 L 84.93073299999999,71.669527 L 83.91425799999999,71.264384 C 82.83298299999998,69.616089 87.83588999999999,66.87902500000001 85.03201899999999,67.24654100000001 C 81.594336,71.69553300000001 74.93038399999999,69.630565 72.38369499999999,65.79753400000001 C 69.89542099999998,68.05199900000001 67.38346599999998,65.58804300000001 69.48516399999998,62.30937500000001 C 71.56505199999998,56.74217400000001 68.18322999999998,61.29236600000001 67.00624599999998,63.64469400000001 C 64.29187399999998,62.80304600000001 66.12480899999997,59.095712000000006 66.81039199999998,58.12048300000001 C 68.44355899999998,54.792131000000005 68.25331599999998,50.781135000000006 69.69548699999999,46.91289900000001 C 69.65529699999999,43.02322200000001 71.11958999999999,39.27196500000001 75.24915399999999,38.60901300000001 C 74.22584099999999,36.119678000000015 81.757268,30.93388600000001 77.60043099999999,35.22317300000001 C 75.62989199999998,38.96958500000001 79.52988999999998,36.16085200000001 80.69739999999999,35.85104200000001 C 81.45167199999999,35.439099000000006 85.32438899999998,36.288276 84.41293499999999,37.306250000000006 C 82.65985199999999,38.349233000000005 75.026778,36.00464300000001 77.106405,39.41464800000001 C 80.46613099999999,42.849025000000005 86.118319,45.38230600000001 89.108773,40.342757000000006 C 92.661568,34.727766 84.347665,30.65427100000001 79.833887,33.055347000000005 C 80.086608,30.249479000000004 83.10792000000001,27.756297000000004 86.029891,27.640173000000004 L 86.029891,27.640173000000004 C 86.704192,27.613373000000003 87.372867,27.713513000000006 88.00134700000001,27.965218000000004 C 91.55773200000002,27.965218000000004 99.333582,28.772486000000004 103.00508,35.428845 L 103.00507999999999,35.428845 M 63.896875,82.485402 C 66.249502,86.561521 64.337306,78.82146499999999 67.794828,80.83227299999999 C 67.352932,85.41653899999999 74.94703899999999,80.91820299999999 72.55836199999999,84.29097699999998 C 67.41075299999999,89.31203099999999 75.90274899999999,84.51253399999999 77.61438399999999,82.89674699999999 C 77.51688399999999,80.820382 84.41605499999999,76.439833 82.617179,79.41530599999999 C 80.436595,85.29987899999999 73.28683699999999,86.62278599999999 70.64375,91.58355499999999 C 67.520111,97.12903699999998 66.65442,103.47107 63.719108,109.07448 C 63.059469,112.84205999999999 60.851583999999995,103.54507 60.908944,102.57719999999999 C 60.23744,100.81674999999998 61.294444999999996,92.55449099999998 62.544503,94.96060999999999 C 62.899881,93.37544499999998 60.359347,88.14755799999999 60.274357,86.100686 C 58.00797,81.99370499999999 60.390242,75.87516 61.687191,71.335179 C 62.378763,69.860187 62.698333999999996,69.333326 62.802368,69.40661399999999 C 63.086796,69.97546999999999 61.455391,75.17191999999999 62.126957000000004,76.86145599999999 C 65.991359,80.72585799999999 61.781315000000006,80.55177799999998 63.896875,82.485402 M 66.962321,88.518626 C 67.283231,86.681941 67.152405,85.895135 66.879121,85.803029 L 66.879122,85.803029 C 66.42365099999999,85.64952 65.572172,87.426789 65.755676,89.49530999999999 C 65.521424,94.58480499999999 67.16926099999999,90.86721899999999 66.96232099999999,88.51862599999998 L 66.962321,88.518626 M 81.300464,40.470915 C 79.647982,39.541619999999995 79.21557700000001,39.16703 79.421509,39.152649 C 79.764729,39.128679 81.881182,40.105818 83.079167,41.187149999999995 C 82.42485599999999,41.407152999999994 81.677423,41.000947999999994 81.300464,40.470915 M 74.08333300000001,40.374285 C 74.43048600000002,40.765911 75.223077,40.754084 75.66249700000002,40.731108 C 77.03886200000002,40.594632 76.49385400000001,39.445143 75.77986100000001,39.457817999999996 C 75.065869,39.470498 74.56077900000001,39.721616 74.08333300000001,40.37428499999999 L 74.08333300000001,40.374285 M 90.29423000000001,42.922961 C 90.11090600000001,42.913861000000004 89.85064700000001,43.289398 89.52683500000002,44.383854 C 90.70388500000001,46.44148 90.84420300000002,42.950338 90.29423000000001,42.922961 M 100.07296000000001,46.089176 C 98.767447,46.704096 93.59695800000001,44.652031 98.156799,45.484562000000004 C 98.23430900000001,44.948507000000006 98.539623,44.743011 98.93711300000001,44.76264200000001 C 100.95243,45.26647100000001 101.96005000000001,47.20506400000001 101.35144000000001,48.15416700000001 C 100.10183,51.28428800000001 100.34344000000002,47.11830700000001 100.07296000000001,46.08917600000001 L 100.07296000000001,46.089176 M 80.99919,48.41875 C 81.825814,46.366059 80.801007,45.406536 79.283533,45.380176000000006 L 79.283533,45.380176000000006 C 77.766058,45.35381600000001 75.75611500000001,46.26042700000001 74.61250000000001,47.93970900000001 L 74.61250000000001,47.93970900000001 C 76.460248,48.50290900000001 78.90211800000002,45.90059900000001 80.99919000000001,48.41875000000001 L 80.99919,48.41875 M 89.403845,49.376831 C 91.150675,48.430980000000005 92.79414100000001,49.069349 90.706608,46.090727 C 89.870321,46.812695 84.567339,50.775333 88.9,51.611837 C 90.77895500000001,52.60476 90.766599,49.955377 89.403845,49.376831 M 84.534373,49.137569000000006 C 86.34339800000001,47.657878000000004 84.760592,47.022929000000005 83.368036,47.05294200000001 C 81.276239,47.15171200000001 81.856553,48.19540200000001 83.34374600000001,48.95825200000001 L 84.534373,49.137569000000006 M 96.8375,48.815623 C 94.887686,47.52587 94.503261,47.06767 94.857259,47.114952 L 94.857259,47.114952 C 95.447257,47.193752 98.088635,48.676421000000005 98.954167,50.050173 C 97.81835,50.837039 97.88183,48.941755 96.8375,48.815623 M 85.968396,61.895445 C 87.098725,61.986145 88.419491,62.464604 89.436401,61.729563 C 92.30648000000001,57.268332 86.42479900000001,52.271501 82.309188,51.103854999999996 C 81.584592,50.668769 80.543937,50.407585 79.405489,50.323541 C 78.978571,50.292021 78.537913,50.285311 78.094975,50.303900999999996 L 78.094975,50.303903999999996 C 74.994404,50.434073999999995 71.783108,51.797199 72.406433,54.463857 L 72.406433,54.463857 C 75.351104,58.512018999999995 81.234634,60.355914999999996 85.96839600000001,61.895444999999995 L 85.968396,61.895445 M 99.321818,51.230847 C 99.24627799999999,51.050079999999994 99.174256,50.684597999999994 99.272498,50.66874 C 99.758307,50.886432 99.432376,51.495334 99.321818,51.230847 M 92.683232,57.6032 C 92.961162,62.972271 94.327366,54.093874 93.37879600000001,53.112002000000004 C 93.239405,51.350649000000004 92.90307200000001,50.824161000000004 92.44190300000001,50.866144000000006 C 91.67328700000002,50.936114 90.55792000000001,52.585710000000006 89.429167,52.731146 C 91.010925,54.359502 93.82180100000001,53.71513 92.683232,57.6032 M 82.89054800000001,53.443248000000004 C 83.57484600000001,54.823376 80.611901,52.687029 79.451998,52.461912000000005 C 76.01664600000001,52.13578400000001 76.574098,51.6221 78.141484,51.56946000000001 C 79.708869,51.51682000000001 82.28623400000001,51.92506900000001 82.89054800000001,53.443248000000004 M 78.81017700000001,54.258185000000005 C 78.34440200000002,55.13289400000001 77.87650500000001,55.953931000000004 77.601982,56.886448 C 77.25278200000001,57.000034 76.838272,56.954028 76.338493,56.599127 C 76.552922,55.535181 76.934069,54.590412 77.386491,53.696462000000004 C 77.541762,53.544023 77.70630700000001,53.441627000000004 77.876383,53.436530000000005 C 78.232112,53.42587 78.582369,53.732638 78.81017700000001,54.258185000000005 M 77.159115,53.8086 C 76.777594,54.680032 76.319155,55.553444 76.058407,56.497841 C 75.225201,56.531881 75.14207400000001,56.23585 75.232617,55.418321 L 75.927148,54.194623 C 75.979348,53.875052 76.263159,53.682518 76.551917,53.627216 C 76.803343,53.579066 77.04924,53.642066 77.159115,53.8086 M 80.545988,55.803309999999996 C 80.41338599999999,56.327391 80.258055,56.812807 80.02457299999999,57.163951 C 79.25310199999998,57.149961 79.009453,57.107741 78.030379,56.818234999999994 C 78.160626,55.96695199999999 78.569991,55.14481299999999 79.14504,54.340349999999994 C 79.32546099999999,54.289379999999994 79.49495599999999,54.261179999999996 79.64061699999999,54.27833999999999 L 79.64061699999999,54.278338999999995 C 80.23180699999999,54.347978999999995 80.52365599999999,54.956920999999994 80.545988,55.803309999999996 M 86.51875,56.166594999999994 C 84.748604,55.166565999999996 84.393933,54.66693299999999 84.693022,54.582195999999996 C 85.191503,54.440968 87.50558099999999,55.452211999999996 88.10625,57.219243999999996 C 87.93203700000001,58.661038999999995 86.61781,56.345260999999994 86.51875,56.166594999999994 M 81.821362,58.08792499999999 C 81.260089,57.99763499999999 80.79025,57.82053499999999 80.21525899999999,57.175318999999995 C 80.33583199999998,56.50935 80.701236,55.92455399999999 81.23070099999998,55.398166999999994 C 81.37798099999998,55.31967699999999 81.51645799999999,55.27936499999999 81.64204499999998,55.29016299999999 L 81.64204499999998,55.29016299999999 C 81.94069999999998,55.315842999999994 82.18001399999999,55.567640999999995 82.36861599999999,55.921648999999995 L 82.36861599999999,55.921648999999995 C 82.35413599999998,56.715714 82.20296499999999,57.451198 81.821362,58.087925 L 81.821362,58.08792499999999 M 85.332259,57.62748799999999 C 84.65126099999999,58.159806999999994 84.0792,58.65790499999999 83.55975699999999,59.38810399999999 C 82.94535699999999,59.04164499999999 82.55539699999999,58.88274199999999 82.12108599999999,58.35095799999999 C 82.275213,57.605656999999994 82.67664199999999,57.03319599999999 83.169084,56.52471299999999 C 83.291337,56.49110299999999 83.425485,56.42436099999999 83.54012,56.41257499999999 L 83.54012,56.41257499999999 C 84.287267,56.33575499999999 84.86668,56.75668899999999 85.33225900000001,57.62748799999999 L 85.33225900000001,57.62748799999999 M 84.39226500000001,60.483644999999996 L 83.77369800000001,59.655789999999996 C 84.14998200000001,58.984255 84.66655600000001,58.365095 85.58599000000001,57.897240999999994 L 85.58599000000001,57.89723899999999 C 85.95069000000001,58.08402999999999 86.20478200000001,58.25857899999999 86.44743700000001,58.44345899999999 L 86.44743700000001,58.44345899999999 C 85.988663,59.26189999999999 85.396617,60.00891599999999 84.39226500000001,60.48364499999999 L 84.39226500000001,60.483644999999996 M 87.286662,60.929615 C 87.093569,61.130323 85.87451300000001,61.348628 84.747799,60.796807 C 85.431133,60.261869000000004 86.107111,59.749977 86.718738,58.638799 L 86.718738,58.638796 C 86.767708,58.671956 86.783008,58.690646 86.840694,58.727166 L 86.840694,58.727166 C 87.336218,59.286716999999996 87.759088,60.438554999999994 87.28666199999999,60.929615 L 87.286662,60.929615 M 84.148869,63.764576999999996 C 84.86170200000001,61.493283999999996 79.728727,61.387466999999994 78.020044,60.434031 C 76.70486199999999,59.907474 75.890158,59.709238 75.456376,59.731749 L 75.456376,59.731753 C 73.576655,59.829302999999996 78.84523,64.077879 81.491667,63.774916999999995 L 81.491667,63.774916999999995 C 82.37032300000001,63.921614 83.269733,63.882428999999995 84.148869,63.764576999999996" id="path8" style="stroke:#ff0000; stroke-width:2; fill:none"/>
	<path d="M 75.818655,137.17861 L 75.40647000000001,137.56128999999999 C 75.86628200000001,134.87251999999998 77.29273400000001,134.07126 75.818655,137.17861 M 79.219324,120.95621 C 77.808553,124.8135 78.373477,130.59623 76.48041,133.48229 C 77.71203600000001,129.37818000000001 77.00392500000001,124.76935 79.219324,120.95621 M 93.637715,111.25446 C 95.644175,109.06237 92.958002,116.90177 91.679024,118.08793999999999 C 88.70193,121.58268999999999 87.321068,126.13346999999999 84.58568,129.62928 C 86.556741,123.02467999999999 91.074405,117.60919999999999 93.637715,111.25446 M 105.91254,109.75278999999999 C 107.99046000000001,115.63837 107.49885,122.26595999999999 106.16678,128.26791 C 105.85158,128.7737 105.53125,126.77918 105.69404,127.42328 L 105.69404,127.42328 C 107.39987,121.98108 105.75364,113.43083 105.91254,109.75279 L 105.91254,109.75279 M 78.512012,115.8833 C 76.64416,118.97436 74.839597,123.64422 72.159382,126.70135 C 71.677438,126.62635 70.68338299999999,128.05296 70.261631,127.28846 C 73.964351,124.19637 74.115944,117.57466 78.512012,115.8833 M 76.61174,118.06313 C 75.419716,118.11473 76.379358,119.94723 76.61174,118.06313 M 115.9091,123.16442 C 115.88159999999999,124.47459 116.26849999999999,126.60229000000001 114.82916999999999,127.29581 C 115.52492,125.08070000000001 114.42443999999999,116.70243 115.9091,123.16442 M 39.512168,105.81105 C 40.489074,110.94623 40.774154,116.79502 37.594015000000006,121.26419999999999 L 37.76132100000001,120.12082999999998 C 39.84090400000001,116.18285999999998 38.41485600000001,106.72956999999998 39.51216800000001,105.81104999999998 L 39.51216800000001,105.81104999999998 M 78.37301500000001,109.33022999999999 C 80.679623,106.52019999999999 83.25973,101.74308999999998 87.09339200000001,101.90005 C 82.462128,106.87983999999999 78.73214000000002,113.42792999999999 72.86514500000001,117.16927 C 70.69329400000001,118.46594 68.85171000000001,120.76185 66.14583300000001,120.83599 L 66.14583300000001,120.83599 C 69.91330900000001,116.58718999999999 75.28286000000001,114.2946 78.37301500000001,109.33023 M 53.223217000000005,115.89105 C 52.43637700000001,116.72799 53.444318,123.26839000000001 52.168358000000005,119.57148000000001 C 51.217331,117.1957 53.339837,109.16122000000001 53.223217000000005,115.89105 M 78.84583,120.43833000000001 C 79.59044300000001,116.11907000000001 81.36309700000001,118.45431 78.84583,120.43833000000001 M 111.21754000000001,101.42415000000001 C 111.96049000000001,98.96326100000002 110.04546000000002,99.88602700000001 111.60174000000002,96.75681200000001 C 113.30698000000002,94.95957000000001 111.46045000000002,87.55835700000002 113.37046000000002,88.89989600000001 C 115.32004000000002,94.80806600000001 111.92592000000002,100.91362000000001 113.37946000000002,106.92409 C 113.69071000000002,110.81400000000001 115.54654000000002,114.85199 114.44408000000003,118.73105000000001 L 114.44396000000003,118.73105000000001 C 114.61260000000003,112.70681 109.95188000000003,107.50624 111.21754000000003,101.42415000000001 L 111.21754000000003,101.42415000000001 M 112.97708000000003,107.02396000000002 C 112.33828000000003,105.69096000000002 112.51371000000003,108.29141000000001 112.97708000000003,107.02396000000002 M 112.71250000000003,97.08646700000001 C 111.92670000000004,96.09381000000002 112.29785000000004,98.56541600000001 112.71250000000003,97.08646700000001 M 50.15303500000003,101.29995000000001 C 51.53873000000003,95.13530600000001 51.51000400000003,88.71592400000002 50.90009100000003,82.51317900000001 C 52.73148900000003,77.910966 53.29452200000003,72.95535500000001 55.48298000000003,68.47816700000001 C 54.69875300000003,72.88510200000002 54.809996000000034,77.75407700000001 52.42241200000004,81.71838300000002 C 53.53750700000003,84.06714400000001 50.93055800000003,88.71958800000002 53.261831000000036,89.59517700000002 C 53.790884000000034,95.54271100000003 51.72328500000004,100.89365000000002 49.089487000000034,106.26211000000002 C 46.935162000000034,109.39872000000003 48.595827000000035,109.97827000000002 47.06646700000003,112.21233000000002 C 49.05904100000003,110.97543000000002 44.13095800000003,116.23138000000003 46.66024600000003,117.40806000000002 C 46.69802600000003,118.22911000000002 45.57622700000003,118.21586000000002 45.48256400000003,117.38176000000001 L 45.48256400000003,117.38177000000002 C 42.46909600000003,111.41770000000001 49.81242800000003,107.01647000000001 50.15303500000003,101.29995000000002 L 50.15303500000003,101.29995000000002 M 117.74973000000003,100.73612000000003 C 117.60227000000003,98.14869600000003 118.01951000000003,94.82460600000003 115.88592000000003,93.78288700000003 C 117.03052000000002,88.51961700000003 116.67814000000003,83.66090000000003 116.24888000000003,78.26006800000003 C 115.46221000000003,74.13783700000003 115.88070000000003,72.82461200000003 117.14092000000002,68.98704400000003 C 117.82663000000002,74.43518500000002 118.53892000000002,80.04624800000002 118.33765000000002,85.43717300000003 C 117.28285000000002,92.43717700000003 120.52997000000002,98.99216200000004 120.41042000000003,105.94054000000003 C 119.72113000000003,108.84081000000003 123.06446000000003,119.16954000000003 117.80572000000004,117.82894000000003 L 117.80573000000004,117.82894000000003 C 120.15064000000004,112.32206000000004 119.10257000000004,106.32578000000004 117.74973000000004,100.73612000000003 L 117.74973000000004,100.73612000000003 M 43.32721900000004,113.45464000000003 C 42.665500000000044,113.78885000000002 42.430601000000046,117.17960000000002 41.53958300000004,116.07142000000003 C 41.700324000000045,113.75092000000004 45.84341600000004,108.32733000000003 43.32721900000004,113.45464000000003 M 78.08196300000004,104.38167000000003 C 79.80357200000005,102.61486000000002 82.31289100000005,100.87714000000003 79.34331400000005,104.19736000000003 C 76.19650100000005,107.53343000000004 73.55445000000005,111.83821000000003 68.95901000000005,113.32082000000003 C 70.63341300000005,109.18033000000003 75.73729100000006,108.10939000000002 78.08196300000004,104.38167000000003 M 96.65121000000005,110.22373000000003 L 96.61281000000005,109.70918000000003 L 96.58969000000005,108.67761000000003 C 96.61595000000004,103.26855000000003 98.24394100000005,110.80043000000003 96.65121000000005,110.22373000000003 M 86.88285500000005,107.87612000000003 C 90.93647100000005,105.47723000000003 91.16205900000006,100.16474000000002 94.03913000000004,96.83749700000003 C 91.04262400000005,100.90882000000002 91.80795400000004,109.25603000000002 86.15053000000005,110.44282000000003 C 86.58509300000004,109.01961000000003 90.53341100000004,107.11500000000002 86.88285500000005,107.87612000000003 M 43.00454800000005,107.80902000000003 C 42.79842800000005,108.00818000000004 42.176171000000046,112.14275000000004 42.06875000000005,109.79037000000004 C 41.60280900000005,107.57469000000003 44.48385200000005,103.22112000000004 43.00454800000005,107.80902000000003 M 122.70334000000005,104.08710000000004 C 122.65864000000005,105.40542000000003 125.33753000000006,109.80447000000004 122.07458000000005,108.89169000000004 C 122.03948000000005,106.79377000000004 122.44277000000005,97.63512300000004 122.70334000000005,104.08710000000004 M 46.04119200000005,103.99530000000003 C 46.002002000000054,104.31032000000003 45.47543000000005,109.14204000000002 44.97916600000005,106.57900000000002 C 43.886858000000046,104.45219000000002 48.59622600000005,99.36925700000002 46.04119200000005,103.99530000000003 M 35.068485,87.576492 C 36.099104000000004,83.297983 36.658295,78.897521 38.111574000000005,74.727428 C 38.189714,80.73816000000001 35.690854,86.321787 34.68179500000001,92.092704 C 35.381718000000006,96.874861 36.15722600000001,102.06547 34.957662000000006,106.64665 L 34.27814800000001,106.65065 L 34.278149000000006,106.65076 C 35.052606,100.3092 33.455288,93.745182 35.068485,87.576492 M 103.67052,97.83639 C 102.19949,100.52785 99.139625,103.88382 96.57292,104.89419 C 97.59090499999999,102.04522 103.06855,96.798053 103.67052,97.83639 M 43.41026299999999,104.06304999999999 C 43.53508699999999,101.10681 44.589845999999994,103.51355999999998 43.41026299999999,104.06304999999999 M 42.108312999999995,87.31401199999999 C 41.48402599999999,92.439647 40.50257799999999,97.57369999999999 39.29201,102.60408999999999 C 39.26963,101.74025999999999 39.292263,100.87621999999999 39.30923,100.01253999999999 L 39.309229,100.01253999999999 C 39.067241,95.24466799999999 40.513406,91.35601599999998 42.108313,87.31401199999999 L 42.108313,87.31401199999999 M 114.74351999999999,101.63484 C 114.48534999999998,96.99999199999999 115.78137,102.81183 114.74351999999999,101.63484 M 44.774723,96.085103 C 44.680323,97.918857 42.647378,101.23018 41.358774000000004,100.87244 C 42.446919,98.41636199999999 45.652371,88.849304 44.774723,96.085103 M 89.02947,100.24948 C 91.794945,97.670164 87.179007,102.65299 89.02947,100.24948 M 82.10801500000001,93.84734800000001 C 82.034435,93.97307700000002 79.920499,97.32487100000002 80.46808000000001,95.76004700000001 C 81.48235100000001,93.33028400000002 84.63178100000002,88.64381000000002 82.10801500000001,93.84734800000001 M 120.12876,77.828455 C 120.03656,74.62241300000001 120.74388,65.64972 119.30479,65.95784300000001 C 118.65536999999999,69.53626400000002 118.22413,61.60832700000001 117.64128,60.519568000000014 C 117.60137999999999,57.754581000000016 116.15755999999999,52.69868200000001 116.29028,51.35328300000001 C 121.47296999999999,61.699064000000014 122.40043,73.82125500000001 120.32365,85.11521400000001 C 119.11607000000001,88.22436200000001 121.78746,94.602496 121.22686,95.420167 C 117.60421,90.180857 120.61898000000001,83.63018100000001 120.12876,77.828455 M 110.4571,78.184302 C 111.19507999999999,83.870858 110.57027,89.658878 108.82976,95.100924 L 108.88695999999999,94.37008700000001 C 108.39063999999999,88.90784400000001 110.41424999999998,83.62488800000001 110.45709,78.18430200000002 L 110.4571,78.18430200000002 M 43.195918,92.204449 C 43.514979,92.08794499999999 42.287454,94.537832 42.597906,92.786197 C 42.940802000000005,90.288428 44.409979,88.980994 43.195918,92.204449 M 101.63399,77.55591 C 103.23698,79.925418 98.98910099999999,86.50012699999999 96.585055,88.8608 C 95.217233,90.073307 93.574423,92.227656 92.21370999999999,92.604207 L 92.21370999999999,92.604207 C 95.75376899999999,87.79238600000001 99.80299799999999,83.276363 101.63399,77.55591 M 91.565822,78.774746 C 92.313846,83.758355 87.196719,87.6721 85.074584,91.93380599999999 C 84.72793300000001,92.777723 84.220034,92.27525299999999 84.84182,91.612017 C 87.669877,87.66139899999999 89.340433,83.05980299999999 91.565822,78.774746 M 43.216041,71.219727 C 41.453157999999995,76.569635 39.143223,81.699804 38.668063,87.360202 C 38.524468,88.20396 37.6309,90.913162 37.575874,88.389627 C 36.901149,82.30398100000001 39.59348,75.35014000000001 43.216041,71.219727 M 46.539981,85.01807000000001 C 46.753972999999995,85.91093800000002 46.070640999999995,90.044386 45.856328999999995,86.857877 C 45.03158499999999,84.277134 47.490579999999994,80.106054 46.539981,85.01807000000001 M 58.321283,63.328596 C 58.014977,60.463269999999994 61.095083,53.766465999999994 60.234392,60.289061999999994 C 59.639691,62.033818 59.488576,66.96371599999999 61.715375,65.186236 C 62.156642000000005,66.31201 61.276768000000004,70.472264 59.887327,67.75008199999999 C 57.487435,73.008815 58.564285,79.20280799999999 57.063199,84.63989099999999 C 57.061899,85.56685699999998 58.222187999999996,90.66696999999999 56.137259,87.624997 L 56.137259,87.624997 C 55.063444,79.464041 57.949133,71.459158 58.321283,63.32859599999999 L 58.321283,63.32859599999999 M 98.71215699999999,71.51566 C 99.789666,68.60746999999999 102.49027999999998,68.39570599999999 100.76893999999999,71.841985 C 99.04754499999999,77.335017 96.61025599999999,82.733244 92.71379699999999,86.987248 L 92.13067199999999,87.20199299999999 L 91.47585999999998,87.15437299999999 C 94.88266899999998,82.38542299999999 96.50434699999998,76.726524 98.71215699999999,71.51566 M 32.65596,83.939093 C 35.778385,78.202162 33.185307,85.513919 32.65596,83.939093 M 110.13534999999999,71.426316 C 110.35511999999999,75.678024 108.57005999999998,79.937108 106.23572999999999,83.409933 C 107.71602999999999,79.98213899999999 108.94188999999999,72.326179 110.13534999999999,71.426316 M 108.92875999999998,60.017358 C 110.56753999999998,58.299416 107.55188999999999,65.160911 107.10122999999999,66.557198 C 105.47496999999998,69.489843 104.48905999999998,76.47943 102.92290999999999,77.311283 C 104.52399999999999,71.393196 105.36231999999998,65.184458 108.92875999999998,60.017358 M 52.904346,52.815305 C 55.550684,47.351627 58.587367,41.854387 62.940062,37.59071 C 59.516129,42.161272000000004 57.748165,46.558516 55.539539999999995,51.709147 C 53.137964,55.914864 50.587816,59.790232 49.276973999999996,64.67833 C 47.523877999999996,68.261217 47.611441,74.162718 45.79193299999999,76.883183 C 45.688767999999996,76.633421 45.58558699999999,76.38364800000001 45.48243299999999,76.133893 C 45.07551099999999,67.734683 49.96166399999999,60.382679 52.90434599999999,52.815305 L 52.90434599999999,52.815305 M 58.77430099999999,51.991922 C 61.658872999999986,46.361927 65.02516599999998,41.007917000000006 69.25347299999999,36.25576 C 72.30858999999998,33.220459000000005 77.55409099999999,26.394400000000005 79.62257599999998,26.133812000000002 C 76.64101899999999,30.468609 72.74408799999998,33.759879000000005 69.91081799999998,38.043988 C 67.47028499999998,41.934523999999996 63.83574299999998,45.356468 61.77452099999998,48.881803 C 59.48194299999998,53.495098 56.75161799999998,57.923524 54.64532699999998,62.567699 C 52.80366999999998,66.342565 53.06136699999998,72.257818 50.54073799999998,75.023807 C 50.136980999999984,74.77230700000001 50.03520499999998,74.21710900000001 50.270822999999986,73.83123300000001 L 50.270822999999986,73.83123300000001 C 52.021028999999984,66.181413 54.00965499999999,58.40288000000001 58.77430099999999,51.99192200000002 L 58.77430099999999,51.99192200000002 M 115.72364999999999,63.684508000000015 C 115.82045,66.68734000000002 116.57431999999999,70.96792700000002 113.97797999999999,73.09861300000001 C 114.73178999999999,70.75121100000001 113.32911999999999,62.45008400000002 115.72364999999999,63.684508000000015 M 46.276509,55.744114 C 46.882183,52.975249000000005 50.469801,49.231671000000006 48.251388,54.393744000000005 C 45.762262,57.681381 44.031172999999995,63.58534 43.895567,66.162979 C 43.179393,66.674829 40.978902,73.957335 40.601098,71.305243 C 41.972842,65.953961 44.34644,60.891791000000005 46.276509000000004,55.744114 L 46.276509000000004,55.744114 M 39.6875,65.813357 C 40.683468,61.818774 42.230311,64.404443 39.6875,65.813357 M 107.17119,52.831215 C 107.20029,57.438172 110.46029,46.380453 109.99812999999999,43.898986 C 108.28760999999999,37.506153 113.21582999999998,46.165563 111.26852,48.842509 C 110.58476999999999,51.529256 108.57042,59.944553 107.51214999999999,59.457774 C 108.74488,57.180535 108.97285,53.132537 106.71923999999999,57.494955 C 105.16803999999999,59.768437999999996 103.99044999999998,62.431897 101.87299999999999,64.241607 C 103.60546,60.553659 105.24762999999999,55.767036000000004 107.17119,52.831215 M 56.095718,62.022737 C 56.531802,58.811797 56.628431,63.233317 56.095718,62.022737 M 43.400304,59.083847 C 43.837931999999995,55.633773999999995 44.984059,57.478609 43.400304,59.083847 M 64.264144,55.541188999999996 C 64.171734,56.051525 62.787421,59.463671 63.110177,56.951556999999994 L 63.110177,56.951556999999994 C 62.830521,54.498712 66.515356,51.581301999999994 64.264144,55.541188999999996 M 113.07428,56.801945999999994 L 112.74809,57.546876999999995 C 112.39339000000001,54.605166999999994 114.55144,52.640992999999995 113.07428,56.801945999999994 M 107.66765000000001,46.434377 C 106.81969000000001,49.495629 106.31733000000001,53.020601 104.11146000000001,55.430206999999996 C 105.67796000000001,52.663785999999995 105.85603,48.762513 107.66765000000001,46.434377 M 116.48281000000001,49.875057 C 115.18895000000002,47.248537 118.25417000000002,50.779018 116.48281000000001,49.875057 M 43.391666000000015,48.437957 C 44.75981800000002,45.362387999999996 45.70610600000001,49.176525 43.391666000000015,48.437957 M 115.59319000000002,43.916286 C 115.60369000000001,44.0991 118.37627000000002,48.564782 116.78227000000003,46.849567 C 114.36210000000003,45.407821 112.42274000000002,38.68295 115.59319000000002,43.916286 M 49.42277300000002,42.532896 C 48.91388200000002,42.775648000000004 46.526231000000024,47.335159000000004 47.13531700000002,45.511517 C 47.79403900000002,43.297554 52.87952800000002,37.27445 49.42277300000002,42.532896 M 52.89171200000002,40.476646 C 52.50517000000002,40.780073 48.35558800000002,48.105411000000004 49.89433600000002,44.619197 C 50.72350700000002,42.890746 54.865524000000015,34.797409 52.89171200000002,40.476646 M 51.46145800000002,44.979167000000004 C 54.18411100000002,42.751082000000004 49.705215000000024,47.27676 51.46145800000002,44.979167000000004 M 66.950233,30.208574 C 68.70969,28.448853999999997 72.66233,24.005252 73.40545,24.36275 C 69.121725,28.015228999999998 67.351634,33.141973 62.648915,36.082342 C 59.093415,38.239377 57.461996,42.036745999999994 55.299449,45.214527 C 55.803323000000006,38.153194 63.013405000000006,35.126508 66.950233,30.208574 M 59.002083,45.408437 C 60.416138,43.191192 59.85036,45.464327 59.002083,45.408437 M 111.00445,35.9667 C 110.54088,38.390899000000005 108.49912,28.626999000000005 111.44827000000001,33.558114 C 113.80036000000001,36.436699000000004 118.25565,42.419952 117.03006,44.70653 L 116.71587000000001,43.984416 L 116.49091000000001,43.562027 C 114.64955000000002,41.532635 112.00586000000001,35.052467 111.00445000000002,35.9667 L 111.00445000000002,35.9667 M 47.26590900000002,40.298547 C 49.24378000000002,36.943311 51.810149000000024,39.267812 47.26590900000002,40.298547 M 116.72990000000001,39.027157 C 116.18516000000001,37.019313000000004 117.95494000000002,41.052507000000006 116.72990000000001,39.027157 M 57.397237,34.670885 C 55.992262999999994,35.243459 55.879576,36.920545 54.942842999999996,37.921317 L 54.942842999999996,37.921317 C 53.977874,34.70375 63.186446,31.063955 57.397237,34.670885 M 101.75702,27.854726999999997 C 106.57979999999999,27.972130999999997 108.97814,34.624334 108.13162,37.901517 C 109.6396,33.305555999999996 101.85855,28.070151 101.75702,27.854726999999997 M 108.17818,29.467091999999997 C 108.49840999999999,29.329959 112.87985,32.660599 110.53347,31.633687 C 108.76697,31.099093999999997 103.01167,27.340034 108.17818,29.467091999999997 M 76.30726,21.197424 C 71.765564,23.143281 68.790364,27.232315 64.558333,29.414429000000002 C 67.78438,26.324639 72.997866,21.248078 76.30726,21.197424 M 75.729423,28.204084 C 74.526196,29.570040000000002 73.26387,29.765299000000002 74.92728,28.496996000000003 C 76.72617199999999,26.830627000000003 78.634292,26.157734 75.729423,28.204084 M 96.002608,26.969638 L 95.24273,26.550047 C 91.23532499999999,24.637382 96.15415999999999,23.702247999999997 96.002608,26.969638 M 87.680816,21.624308 C 86.359167,21.985916 85.118033,22.867100999999998 83.72088,22.881486 C 83.65250999999999,18.647738999999998 95.361391,20.910929 87.680816,21.624308 M 91.87656,23.100948 C 93.928446,22.564366 92.418234,23.633623999999998 91.87656,23.100948 M 89.29687,22.489582 C 87.941354,21.723732 92.756775,23.240913 89.29687,22.489582 M 79.525047,21.693904999999997 C 78.511503,22.047416 77.38506,22.312326999999996 76.32308,21.975324999999998 C 78.248278,20.518409 84.697349,18.972789 79.525047,21.693904999999997 M 94.563665,20.560087999999997 C 94.899085,20.927268999999995 97.331778,21.385579999999997 96.57292,21.997094999999998 C 94.03890899999999,21.166725 89.46852899999999,17.786316 94.563665,20.560087999999997 M 83.54219,19.403937 C 84.99855600000001,18.853575 83.874376,19.974823999999998 83.54219,19.403937" fill="none" id="path9" stroke="#ff0000" stroke-width="2" style="stroke:#ff0000; stroke-width:2; fill:none"/>
</svg>
