<?xml version="1.0" encoding="UTF-8" standalone="no"?>
<!-- Created with Inkscape (http://www.inkscape.org/) -->

<svg
   width="123.83106mm"
   height="137.4404mm"
   viewBox="0 0 123.83106 137.4404"
   version="1.1"
   id="svg1"
   xml:space="preserve"
   inkscape:version="1.4 (86a8ad7, 2024-10-11)"
   sodipodi:docname="Bob Marley.svg"
   xmlns:inkscape="http://www.inkscape.org/namespaces/inkscape"
   xmlns:sodipodi="http://sodipodi.sourceforge.net/DTD/sodipodi-0.dtd"
   xmlns="http://www.w3.org/2000/svg"
   xmlns:svg="http://www.w3.org/2000/svg"><sodipodi:namedview
     id="namedview1"
     pagecolor="#ffffff"
     bordercolor="#000000"
     borderopacity="0.25"
     inkscape:showpageshadow="2"
     inkscape:pageopacity="0.0"
     inkscape:pagecheckerboard="0"
     inkscape:deskcolor="#d1d1d1"
     inkscape:document-units="mm"
     inkscape:zoom="0.65834035"
     inkscape:cx="339.49005"
     inkscape:cy="322.02188"
     inkscape:window-width="1366"
     inkscape:window-height="697"
     inkscape:window-x="-8"
     inkscape:window-y="113"
     inkscape:window-maximized="1"
     inkscape:current-layer="layer1" /><defs
     id="defs1" /><g
     inkscape:label="Camada 1"
     inkscape:groupmode="layer"
     id="layer1"
     transform="translate(-38.602039,-63.56717)"><path
       style="fill:#ff0000"
       d="m 43.331159,200.93548 c -5.99355,-3.41984 3.33157,-8.40247 4.43729,-12.2497 2.22221,-1.3791 2.43177,-8.71586 0.78017,-7.31786 -0.0132,4.6956 -5.54925,14.52961 -9.94658,10.1438 0.24957,-6.12339 2.08451,-12.15655 2.71235,-18.29144 3.40973,-5.73759 2.13275,-11.81825 2.76519,-17.93703 -0.47709,-6.52292 0.94262,-13.26165 3.70504,-19.24477 2.82261,-5.88478 3.07064,-12.55139 5.65703,-18.46117 1.69802,-3.59213 4.7537,-10.90641 5.55164,-12.90944 -4.20596,1.46811 -5.83994,-5.052569 -0.8608,-1.5701 7.02772,-1.02582 7.85827,-9.043994 12.40984,-13.129638 2.66415,-4.222017 10.58595,-7.14556 11.5237,-10.317766 -2.59736,-4.205443 3.73889,-0.02803 3.44101,-3.810893 4.67812,-0.467463 0.33863,-2.168581 2.09472,-3.478061 4.38435,3.85292 0.17927,-5.969183 3.87705,-0.359398 1.57321,1.719715 2.49086,-2.140179 4.41361,-2.262854 -2.17943,-3.489726 3.42873,-1.752273 4.161611,-0.67481 3.53576,-3.432621 8.69843,-3.801268 11.88316,-0.848742 1.90655,0.363027 4.50027,-2.094099 6.39919,-1.557167 -0.19047,-3.030557 5.64524,-4.722498 6.5727,-0.814914 -2.98546,5.755896 5.16849,3.960303 8.46174,2.59684 3.80667,1.444624 7.85409,-0.966363 11.25278,-0.306104 -4.27758,3.301917 -12.12845,0.466549 -14.7997,4.48108 3.20666,3.226644 6.59893,5.777536 10.91613,6.266157 -2.71598,4.039217 5.21351,6.90962 4.40256,11.500254 6.46003,-1.566935 5.73139,7.737268 6.67294,11.811936 -2.39761,5.38221 -1.17647,9.80299 0.0943,15.33074 1.96588,6.34859 3.50934,13.20207 3.07214,20.03794 -0.19616,7.07196 1.13251,14.44309 -1.34155,21.2462 3.8634,4.21152 4.60385,9.98311 4.02592,15.32878 -1.29787,7.12255 3.41362,12.84123 4.76676,19.47378 -0.37228,8.40462 -3.84187,-7.69094 -3.25365,-0.56638 0.74495,2.85608 1.36862,7.91113 -3.13084,4.51986 -1.72081,-1.89979 -0.0133,-11.89826 -1.94893,-4.8357 -1.36645,1.85574 -3.04098,10.09237 -3.39738,3.5346 1.86626,-5.95633 4.61067,-12.51996 -1.18971,-17.12033 -1.94021,5.49115 -0.72863,11.93855 -2.02616,17.46004 -0.4073,5.48879 -3.38225,0.94569 -1.13784,-1.72931 -1.29777,-6.36269 2.49017,-14.20143 -1.70541,-19.50105 -0.50608,-2.6234 -4.30119,-12.61301 -4.11278,-5.13606 1.14458,6.74029 -2.6614,13.06828 -1.55378,19.79726 -1.6107,2.03501 0.26486,12.1435 -2.45245,4.97325 -2.31058,-3.85257 1.63756,-8.18476 -0.75168,-12.27521 1.68235,-6.08513 -0.13008,-12.33228 1.93605,-18.00834 -4.64979,0.13512 -6.82689,7.65025 -5.96012,12.91699 -0.96563,6.25023 -0.21946,13.43539 2.53658,19.44143 -1.73143,5.38819 -3.14285,-4.30557 -5.84607,-5.36436 0.27775,-5.59313 -2.15758,-11.27339 -1.07921,-17.07145 0.24616,-5.36279 1.10703,-10.86681 5.17767,-14.43016 4.68668,-0.50111 -3.36714,-7.8506 -1.26573,-2.147 -4.14425,4.83046 -5.59459,11.504 -10.83256,15.76161 -3.27896,3.40729 -7.50326,10.64235 -7.85298,12.9612 2.72762,-3.35798 9.26186,-10.15639 10.93666,-10.12135 -4.34163,6.61524 -8.27313,14.1375 -7.42069,22.30445 -1.20395,1.04562 -4.37344,0.1257 -6.31246,0.43625 -3.81853,-0.33976 -10.558281,1.88407 -8.41954,-4.14152 3.4013,-1.49709 6.0466,-9.74242 1.4334,-7.58589 -1.66222,3.49025 -5.574841,4.00587 -4.622741,8.50632 -0.85888,3.11595 -3.1752,3.6807 -6.04687,3.22109 -6.21414,1.87381 -6.10213,-3.0105 -4.66629,-6.82427 -5.42711,-0.47122 0.81409,-1.80477 2.37777,-2.08236 0.85581,-4.03532 -6.34798,2.22417 -2.70137,-2.45985 0.90469,-4.1324 4.0687,1.06065 3.50452,-3.61642 2.32883,0.62217 11.180071,-2.05683 7.96324,-6.98899 4.333961,1.6929 1.878261,-1.37309 0.73798,-2.61668 2.160741,-2.51546 2.687251,0.9969 2.737931,-3.93206 1.13776,-3.16155 -0.88818,-4.77155 2.00303,-5.36233 -2.18369,-4.39057 -5.070931,5.1673 -7.262961,6.8142 -1.04791,3.10486 -6.65374,8.45767 -2.94448,2.2511 0.69914,-1.17686 -0.61851,-4.85875 2.98056,-5.03389 -4.31079,-2.92074 0.21982,-7.29921 3.419051,-5.74438 -2.444641,-5.38943 -7.627131,1.69427 -8.665041,0.81894 2.95885,-6.56657 9.946671,-4.8942 14.617871,-7.97641 4.18014,-1.28652 10.70542,-9.75747 9.00385,-10.82813 -6.73609,4.67371 -12.5222,10.88083 -20.346451,13.7779 3.5114,-4.63504 8.718961,-7.50627 12.958601,-11.33607 -2.15802,-4.024 -7.74167,5.0848 -11.440131,5.89719 -7.7412,2.94069 8.366071,-10.56255 0.35164,-5.43606 -6.00796,4.84458 -11.15977,0.26984 -15.12406,-4.11669 -2.60772,-2.59315 -1.07636,3.48564 -1.80553,4.95601 0.75853,3.23587 -0.76456,5.90357 -1.25091,1.1172 -0.91703,-4.56392 -0.52209,-12.03388 -0.98034,-15.31018 -2.90795,9.27598 -3.69872,19.77122 0.83141,28.678 3.89707,6.77695 -7.26324,10.83115 -3.74093,16.84595 2.98147,1.55625 3.04921,12.75924 5.18087,5.24915 2.63971,-6.04089 5.19963,-12.27726 9.33479,-17.47529 -4.0847,8.74894 -7.67827,17.78792 -11.88844,26.50015 -1.12871,-4.8767 -2.28478,-10.05271 -6.20641,-13.49516 -6.0062,-6.36884 6.57685,-11.52334 2.15233,-17.83697 -1.76339,4.99774 -9.45529,13.33989 -3.30108,19.01536 2.40098,6.73632 -4.98846,-5.47481 -2.49511,1.29711 2.94733,2.24194 2.74191,5.46324 3.96171,8.64951 -4.40533,-1.76946 -6.67357,-10.767 -7.4401,-12.06681 -2.02187,4.21647 -4.14587,11.9642 -6.25723,14.08784 -1.34116,-5.3053 1.78978,-9.8351 0.517,-15.11459 0.38119,-6.09784 -5.38824,3.54786 -5.39509,5.7194 0.0902,3.32697 -7.23548,6.2901 -4.25826,8.67 4.26767,-1.65834 5.49346,-10.2287 8.11757,-12.26437 0.46801,5.29906 -2.83998,8.8179 -0.7404,14.06528 4.8093,3.17985 -4.35813,2.26496 -2.62758,-2.15462 -3.14545,0.9948 -6.41286,8.04349 -10.01627,7.1864 z m 1.905,-1.69813 c 0.64074,-2.47878 4.20839,-5.29778 0.20847,-4.28514 0.0246,1.79033 -4.44353,4.2361 -0.20847,4.28514 z m -0.64376,-11.95437 c 2.64395,-5.52866 -5.83206,1.76411 -0.70726,0.77442 z m 54.18124,-1.9829 c 2.461721,-4.0284 -4.36161,2.14033 0,0 z m 3.152991,-2.95973 c -1.974901,-0.63482 -0.62563,2.41665 0,0 z m -55.840031,-1.42383 c 1.52431,-1.72321 4.99638,-6.37899 -0.0198,-3.92594 -1.95147,0.65484 -3.12877,8.44936 0.0198,3.92594 z m 58.493441,-0.17404 c -2.32421,-1.51175 -2.46865,2.79722 0,0 z m 1.76869,-2.20845 c 2.21537,-4.52076 -4.9883,3.91279 5e-5,0 z m 46.9321,-0.014 c 0.24925,-3.34993 -4.87703,-4.80658 -2.02705,-0.62848 0.52186,0.1584 2.83908,3.26147 2.02705,0.62848 z m -93.503171,-3.20412 c 2.6437,-2.97282 1.10488,-5.38528 -0.49898,-1.03133 -0.44317,0.55493 -1.53122,3.08686 0.49898,1.03133 z m 49.293481,-0.76608 c 2.43787,-2.80458 1.01968,-5.05402 0.046,-1.77464 -1.93357,0.8226 -2.93155,5.08758 -0.046,1.77464 z m 21.20422,0.4269 c 1.37246,-2.72719 -2.09453,-6.55394 -1.7271,-1.31571 -0.28556,0.96774 0.90312,2.18768 1.7271,1.31571 z m -85.041381,-1.40042 c 3.08807,-4.68316 7.37927,-8.02154 9.49686,-13.22828 0.21439,-5.08711 7.02466,-10.98819 4.83181,-15.09408 -3.40914,1.94618 -4.24451,5.4007 -4.59718,8.67888 -1.46913,2.21661 -4.71652,5.24817 -3.68265,7.90794 0.88196,4.93262 -8.72316,7.25475 -6.65857,12.93276 z m 103.888181,-0.15135 c -1.58955,-4.93035 -3.47153,-0.92105 -0.51103,1.12975 l 0.19155,-0.20341 0.31948,-0.92633 z m -99.873521,0.5216 c 1.87294,-5.59377 7.93515,-5.93435 10.27231,-10.43801 -3.22791,1.92005 -7.66727,2.71901 -8.65681,6.43893 -0.56355,1.07089 -6.70353,5.08309 -1.6155,3.99908 z m 13.10652,-4.97588 c 1.06752,-0.20313 0.72097,-4.67309 -0.45079,-0.82597 -1.62077,1.47944 0.6024,4.29434 0.45079,0.82597 z m 84.063311,0.59981 c -1.12783,-4.78838 -2.41009,0.5473 0,0 z m -34.8987,-0.61392 c 3.11821,-5.44229 7.48525,-9.59229 10.47155,-15.07007 3.63263,0.37823 2.21043,-4.30929 5.55247,-4.80346 0.54958,-2.63913 3.69293,-0.859 3.58864,-4.96369 0.55354,-4.32184 -5.48599,3.02648 -6.6296,4.62611 -3.06121,6.2018 -9.91792,8.38958 -15.29842,11.9591 -1.99798,1.13603 -8.68798,-0.44321 -3.31516,1.82667 5.1828,-0.43831 8.82006,-4.40445 12.75291,-5.35582 -2.4467,3.19952 -9.46835,9.60007 -7.45682,12.28752 l 0.33443,-0.50641 z m 21.31492,-3.44357 c 5.30542,-5.30768 -5.82836,0.18385 -1.98017,1.69196 0.73265,-0.47533 1.35436,-1.0903 1.98017,-1.69196 z m -8.7664,-1.14405 c 0.35416,-1.13682 1.70179,-5.92448 -1.59653,-2.81929 2.12635,1.06308 -3.61949,4.61511 1.59653,2.81929 z M 62.626589,162.5649 c -2.37,-2.70057 0.90316,4.72866 0,0 z m -2.21393,-0.74195 c 1.99245,-2.55023 -4.35186,0.82565 0,0 z m 65.626481,-3.30547 c 1.04433,-5.08915 -4.58161,2.87779 0,0 z m -61.673021,-0.64362 c 1.70739,-4.77852 -6.99958,2.62817 -0.55731,0.77177 z m -16.43303,-2.18847 c 2.51892,-6.17575 4.67599,-12.02772 7.37978,-18.24978 0.95994,-3.93982 2.80095,-12.03951 1.51907,-13.95525 -1.76974,6.63554 -4.27914,13.0328 -7.99239,19.01666 -1.60199,4.41641 -1.92786,8.94495 -1.70489,12.70669 -1.90677,3.89554 -0.61238,4.17775 0.79843,0.48168 z m 79.442861,-0.0889 c 3.381,-5.45686 -3.31924,1.69988 0,0 z m -61.295191,-1.53426 c 2.02036,-2.35496 2.26982,-8.04074 -0.54908,-2.8396 -0.62671,1.39666 -2.65678,4.36412 0.54908,2.8396 z M 148.72573,149.987 c -0.54643,-2.28352 -1.43092,-14.23074 -3.19668,-6.94818 1.23235,2.96633 -1.17053,9.10415 3.3843,8.03216 l -0.18764,-1.08398 z m -8.23454,-0.42301 c 1.27024,-5.40305 -0.69783,-8.0712 -1.87817,-2.05986 -0.12738,0.41573 1.66218,3.17683 1.87817,2.05986 z M 62.698659,146.592 c 1.58715,-5.2983 3.49273,-11.32504 5.46613,-14.62556 -0.31075,-1.94518 -0.0128,-5.85174 2.32552,-8.06653 0.82966,-2.64759 -0.19481,-7.53094 -2.65021,-3.03037 1.57127,4.89921 -3.79898,8.8502 -3.2288,14.31008 0.14751,2.98197 -6.17286,12.3266 -1.91264,11.41238 z m 6.30929,-0.59263 c 2.67941,-5.71275 -3.49368,2.32126 -0.29424,0.7777 l 0.29423,-0.7777 z m 64.505811,-4.86446 c 1.24877,-4.78501 -3.15233,1.3452 5e-5,0 z m -4.66744,-5.25997 c -1.27951,-8.4452 -1.74609,6.59956 0,0 z m -23.61198,-0.26372 c 5.35921,-5.01394 -6.503201,1.48065 -0.12293,-2.80028 2.24565,-1.13539 10.7711,-7.44557 3.47538,-5.09849 -4.42779,1.06518 2.91121,1.99177 -2.19817,3.33166 -3.06355,3.54181 -5.56707,-1.21169 -5.12186,-3.105 -1.438701,-0.60626 -4.158121,4.18181 -4.240361,-0.53321 -0.53897,-3.0757 -2.74543,-4.10998 1.40075,-1.81902 2.720481,1.67996 7.940901,1.31583 1.963251,-0.13515 -3.305371,-0.39047 -9.507831,-7.93388 -3.111831,-3.4717 2.12798,2.65455 14.275391,4.14933 6.442291,0.3384 -4.180441,-1.32085 -9.755271,-5.78756 -10.845751,-8.1239 -3.94504,2.60703 2.27603,-9.71383 2.99038,-4.78299 3.67247,-0.31623 -3.39067,2.99384 2.21053,1.69886 6.110781,-1.3517 13.183461,3.48232 15.218061,8.51357 -0.47923,-1.52763 -3.16811,-9.21246 -3.53302,-7.27094 -0.90493,3.37071 -2.53122,-4.1889 -2.73539,-0.10686 -3.85867,-1.23702 -5.33442,-2.99062 -1.17399,-4.52508 3.46937,1.96949 5.7671,2.08772 1.36471,0.0592 2.7751,-2.25257 10.41577,0.0424 3.8966,0.1164 1.11978,3.49781 5.7738,3.8729 6.5279,1.85285 3.6702,1.90105 0.39378,15.42017 0.3094,6.03014 0.92529,-6.9644 -7.73512,-0.34093 -2.91525,1.89272 2.49307,-0.55183 -0.04,8.01381 4.63654,4.00075 1.23914,-6.40562 5.71295,1.4331 0.69614,3.18096 -1.9053,2.3954 -8.52476,5.01188 -8.22714,5.92397 5.77396,-2.12563 11.56919,-6.3828 14.09603,-12.12644 2.04209,-5.8854 -1.7047,7.36352 1.25778,0.92497 2.07084,-2.79415 0.16792,-9.41757 2.71557,-5.92971 -1.44863,-2.58368 2.24024,-1.80002 -2.14365,-3.07429 -1.41582,-2.22031 -6.29897,-3.00149 -1.96098,-0.1761 -1.1182,0.46164 -9.05344,-5.09819 -8.03585,-6.97249 2.03557,2.24936 11.44168,6.52056 4.44234,1.82914 -3.2475,-1.15354 -4.49406,-3.46806 -0.0112,-2.38729 3.03641,1.25557 5.04843,2.5493 1.22822,-0.49199 -3.8408,-0.83257 -8.74256,1.32141 -6.31435,-4.881583 1.73861,-5.210584 4.02399,1.263084 6.53248,-2.470041 3.18704,3.191654 8.88148,5.002784 8.57872,10.719474 4.13208,-4.11407 2.84929,-10.63016 1.85412,-15.746161 -2.81137,-6.508778 -9.95481,-10.133619 -16.3532,-12.296048 -6.43927,-1.185457 -14.37246,-0.154514 -17.78155,6.212815 -3.288701,5.885538 -8.603401,9.946703 -12.442521,15.436182 -1.0255,6.495642 -3.37393,12.721122 -5.17592,19.070012 -0.88366,3.33178 -0.24302,11.67108 3.39092,7.69137 -0.81531,8.22862 10.43598,4.45579 13.44899,10.36594 1.854141,1.90242 4.461061,1.24241 5.767791,-0.86461 z M 86.762899,124.13024 c -1.03504,-4.43807 3.21694,0.28029 0,0 z m 1.65326,-1.76542 c -2.54649,-2.18248 2.20351,-4.96192 0.42301,-0.13799 0.33633,0.3546 -0.83504,1.14168 -0.42301,0.13799 z m 0.26109,-3.5898 c -1.49375,-5.17846 2.6265,1.69576 0,0 z m -2.50583,-3.06742 c -1.75386,-2.75876 2.39751,-10.69892 3.00452,-10.22673 -1.73876,2.69022 -2.02837,9.39369 -3.00452,10.22673 z m 26.200111,-6.08194 c -2.70939,-4.28198 6.8014,1.43934 0.89348,0.70035 z m -20.921321,-0.0815 c 0.97452,-4.33766 8.1359,-10.044145 10.581411,-6.39387 -3.262471,1.35515 -9.716691,4.67573 -10.581411,6.39387 z m 13.348951,-2.74392 c -4.53504,-2.43627 4.50715,-3.83761 4.1275,-0.22294 3.33091,-0.62837 -3.65552,1.59169 -4.1275,0.22294 z m 3.2385,-0.26699 c -1.5806,-0.25196 -0.0197,0.43951 0,0 z m 7.62,0.254 c -1.17559,-2.27567 -0.4225,-9.376317 0.65037,-3.14118 1.58899,0.97925 1.62799,3.36279 -0.65037,3.14118 z m -12.2555,-5.13714 c 1.27479,-1.968024 2.71115,0.68732 0,0 z m 2.52577,-3.561078 c -3.74188,0.503079 -8.955891,-6.471669 -2.55433,-2.05804 1.32624,0.706321 7.83088,3.362193 2.55433,2.05804 z m 4.11143,-1.28289 c -0.80454,-2.769677 -1.384,2.890545 -3.72344,-0.550001 -2.86754,-3.452842 -8.403111,-3.058242 -10.720971,-4.249679 5.215981,1.670308 -2.84806,-4.207163 2.91377,-0.26764 2.829861,-1.945985 14.092791,3.259517 8.165531,-2.389888 -2.33028,-1.728098 -10.780641,-1.150286 -3.84003,-3.558427 4.1932,-0.721064 11.69898,0.05375 11.6626,5.537485 3.29492,0.930688 -3.13346,3.654359 -2.49132,5.95919 -0.65608,0.661321 -1.91196,0.704109 -1.96614,-0.48104 z m -1.75025,-0.65205 c -0.98658,-1.569486 -0.28044,1.991798 0,0 z m -2.40516,-1.94624 c -1.04733,-1.343624 -0.57409,1.119431 0,0 z m -1.97379,-0.85637 c -1.60631,-1.485098 -1.09463,1.359745 0,0 z m 4.318,0.19683 c -1.77438,-2.789546 -10.725191,-1.583777 -3.44881,-0.919311 0.77408,-0.562222 3.51206,2.222877 3.44881,0.919311 z m -10.857911,-3.14035 c 2.16052,-5.226305 4.214061,0.23433 0,0 z m 20.846171,40.183908 c 2.2705,-0.95678 10.11507,-8.88695 3.71871,-3.83882 -1.60887,1.30635 -10.58069,8.52835 -3.71871,3.83882 z m 11.54645,0.99576 c -0.21031,-5.58422 -3.06637,1.90806 0,0 z m 2.62154,-4.17914 c 3.93143,-6.37957 -4.89732,2.11297 -1.0604,1.37768 l 0.47614,-0.65619 z m -18.47214,-1.2468 c 1.40124,-5.83137 -2.24809,-2.17587 -0.79746,0.93861 l 0.1726,0.0346 0.62485,-0.97325 z m -4.18559,-2.42407 c 3.75603,-3.45714 -1.90814,-6.01504 -4.5856,-7.63814 -3.14967,-1.65058 -8.875951,-5.13569 -10.339131,0.10191 3.56538,2.15672 8.085201,2.2326 11.552651,5.09542 1.68639,0.42559 1.18914,4.27472 3.37208,2.44081 z m -40.369521,-7.89214 c 2.92749,2.24645 1.87552,-4.28406 4.75269,-3.85139 -0.61918,-2.06726 4.31105,-2.2526 -0.88678,-2.47402 -2.43386,-2.95291 7.63173,-7.48772 0.80126,-4.91156 -3.2812,2.51834 -2.82362,13.61559 -7.50962,9.52933 -0.76367,1.61258 1.94343,4.10683 2.84245,1.70764 z m -8.40424,-3.66416 c -0.54137,-4.7494 3.17301,-3.83283 2.91486,-7.92212 1.14967,-1.35826 7.70945,-2.89327 2.06694,-2.66125 -3.41321,2.28175 -7.10445,8.30795 -5.39081,11.72527 l 0.40904,-1.1419 z m 54.006241,-0.14584 c -1.66338,-0.99241 -0.25966,1.00008 0,0 z m 16.129,-1.62273 c -4.10457,-2.53517 -4.39863,-0.31972 0,0 z m 0.21512,-1.50542 c 0.2889,-4.86372 -6.96025,-10.629021 -10.79881,-8.19171 5.62877,-0.19903 6.90196,5.58046 9.10969,8.37155 0.53395,0.12535 1.24643,0.27103 1.68912,-0.17984 z m -7.07312,-4.36486 c -1.02585,-1.53542 -0.89789,1.48338 0,0 z m -1.27,-0.381 c -3.3679,-2.93285 -2.07887,0.52408 0,0 z M 70.026559,99.995872 c 2.53296,-4.445499 -4.63091,2.606718 0,0 z m 6.66228,-0.2159 c 2.31769,-4.929707 -3.81626,3.133038 0,0 z m 2.17988,-2.88866 c 1.29877,-3.786833 -4.31008,2.584915 0,0 z m -0.68022,-1.92988 c 7.22974,-0.38223 -5.13759,-1.227229 0,0 z m 1.85216,-2.7501 c 1.33676,-1.236144 6.38219,-8.579992 1.7406,-4.853266 -2.69061,-0.348057 -3.33356,6.824305 -1.7406,4.853266 z m 3.41496,-8.12258 c 3.47709,-1.993653 3.59682,-2.914591 -0.22198,-1.098958 -1.47689,0.565297 -3.70544,4.330176 -0.74655,1.857296 z m 4.6276,-4.197592 c 4.54368,-0.388146 4.50145,-7.836889 2.36494,-4.75928 1.00997,1.952828 -2.03614,3.647252 -2.24738,0.47662 -3.44421,-0.04536 -2.31591,3.716363 -1.06327,0.962127 1.60276,2.100686 -5.18644,4.989092 0.94573,3.32049 z m 8.94245,-4.917939 c 2.10825,-2.300053 0.89207,-2.147416 -1.38978,-2.700684 4.720621,-2.490488 -5.70777,-0.949304 0.0973,1.44365 -3.64888,0.915787 -0.0757,1.656858 1.29249,1.257034 z m 16.028491,-3.831745 c 2.48454,-3.885915 -4.08654,3.129394 0,0 z m 6.1595,-2.194671 c 1.73018,-2.579214 -5.6545,1.381114 -0.63994,0.139498 z m 1.2629,-2.274149 c -1.90643,-3.6709 0.13757,3.266727 0,0 z M 70.594549,198.15242 c 2.397,-1.65162 3.4264,-10.49927 4.98902,-3.49846 1.9691,4.73191 -1.87605,4.91044 -5.05036,4.50352 -1.74567,0.15913 -0.58655,-0.19911 0.0613,-1.00506 z m 15.41723,-13.28244 c 0.15292,-2.78964 4.54953,-9.49287 5.06577,-4.77558 -1.44474,1.0843 -4.30539,5.59373 -5.06577,4.77558 z"
       id="path1" /></g></svg>
